<svg xmlns="http://www.w3.org/2000/svg" width="612.583" height="478.422" viewBox="0 0 612.583 478.422">
  <g id="Group_2672" data-name="Group 2672" transform="translate(-1361.59 -1816.855)">
    <path id="Path_1467" data-name="Path 1467" d="M2209.789,2085.444c0,115.543-93.565,209.229-209.064,209.422V1876.023C2116.224,1876.215,2209.789,1969.9,2209.789,2085.444Z" transform="translate(-310.91 -28.782)" fill="#d5c0f4"/>
    <path id="Path_1468" data-name="Path 1468" d="M1593.175,2085.444c0,115.543,93.565,209.229,209.065,209.422V1876.023C1686.74,1876.215,1593.175,1969.9,1593.175,2085.444Z" transform="translate(-112.655 -28.782)" fill="#dbe3ee"/>
    <path id="Path_1469" data-name="Path 1469" d="M1490.65,2556.37H1361.722q-.086,1.132-.133,2.275h129.192Q1490.736,2557.5,1490.65,2556.37Zm-28.8,8.439h-35.224q-32.5,0-65,.01.059,1.138.159,2.265H1490.59q.1-1.127.159-2.266Q1476.3,2564.794,1461.847,2564.809Zm27.6-16.854H1362.926q-.242,1.144-.442,2.3h127.4Q1489.69,2549.1,1489.447,2547.955ZM1363.084,2575.5h126.2q.256-1.141.469-2.3-63.569,0-127.137.019Q1362.83,2574.366,1363.084,2575.5Zm1.689,6.13q.381,1.151.8,2.28H1486.8q.425-1.138.806-2.295h-60.93Q1395.723,2581.615,1364.773,2581.629Zm122.3-42.065H1365.3q-.407,1.127-.767,2.275,61.653,0,123.307,0Q1487.478,2540.695,1487.072,2539.564Zm-117.679,52.717h113.587q.608-1.112,1.171-2.252-57.961,0-115.922.018Q1368.79,2591.177,1369.393,2592.281Zm113.955-61.156H1369.024q-.6,1.137-1.159,2.3,58.318,0,116.634-.019Q1483.946,2532.252,1483.348,2531.125Zm-108.383,69.691h102.442q.9-1.164,1.745-2.371-52.962,0-105.92.015Q1374.071,2599.657,1374.965,2600.816Zm104.675-75.833q-.8-1.176-1.651-2.314H1374.383q-.862,1.152-1.669,2.34Q1426.177,2525.009,1479.64,2524.983Zm-6.816-8.4q-1.147-1.2-2.356-2.331H1381.9q-1.2,1.125-2.338,2.314Q1426.195,2516.615,1472.824,2516.586Zm-90.168,92.578h87.06q1.23-1.121,2.4-2.3-45.922,0-91.849.013Q1381.43,2608.049,1382.656,2609.164Zm80.28-101q-1.719-1.191-3.519-2.27h-66.461q-1.814,1.087-3.55,2.291Q1426.171,2508.181,1462.936,2508.161Zm-68.72,109.407h63.94q1.9-1.081,3.712-2.287-35.688-.013-71.376-.007Q1392.311,2616.485,1394.216,2617.568Zm31.97-120.861a64.712,64.712,0,0,0-17.047,2.272q17.051,0,34.1,0A64.668,64.668,0,0,0,1426.186,2496.707Zm-1.585,129.287h3.17a64.553,64.553,0,0,0,15.727-2.326q-17.318-.005-34.634,0A64.531,64.531,0,0,0,1424.6,2625.994Z" transform="translate(0 -330.717)" fill="#96d9c9"/>
    <path id="Path_1470" data-name="Path 1470" d="M1750.41,1886.416H1600.094q-.1,1.32-.154,2.653h150.625Q1750.51,1887.736,1750.41,1886.416Zm-33.581,9.84h-41.068q-37.891,0-75.783.012.07,1.328.185,2.641h150.177q.115-1.314.185-2.642Q1733.677,1896.237,1716.83,1896.255Zm32.178-19.65H1601.5q-.283,1.332-.515,2.68h148.54Q1749.291,1877.938,1749.008,1876.606Zm-147.326,32.112h147.14q.3-1.33.546-2.679-74.115,0-148.229.022Q1601.386,1907.4,1601.682,1908.718Zm1.97,7.148c.3.895.605,1.781.934,2.659h141.333q.5-1.327.939-2.677H1675.82Q1639.737,1915.849,1603.652,1915.866Zm142.587-49.044H1604.266q-.474,1.314-.9,2.652,71.882,0,143.765.005Q1746.712,1868.139,1746.239,1866.823Zm-137.2,61.461h132.431q.708-1.3,1.365-2.625-67.577,0-135.153.021Q1608.334,1927,1609.037,1928.284Zm132.861-71.3h-133.29q-.7,1.324-1.353,2.681,67.993,0,135.984-.022Q1742.595,1858.3,1741.9,1856.983Zm-126.363,81.252H1734.97q1.05-1.358,2.034-2.764-61.747,0-123.491.017Q1614.491,1936.884,1615.534,1938.235Zm122.04-88.414q-.931-1.37-1.925-2.7H1614.855q-1,1.342-1.945,2.728Q1675.242,1849.853,1737.574,1849.821Zm-7.947-9.79q-1.337-1.394-2.746-2.717H1623.623q-1.4,1.311-2.726,2.7Q1675.262,1840.065,1729.628,1840.032ZM1624.5,1947.969H1726q1.435-1.307,2.8-2.687-53.54,0-107.086.015Q1623.073,1946.668,1624.5,1947.969Zm93.6-117.759q-2.005-1.389-4.1-2.647h-77.487q-2.115,1.268-4.139,2.671Q1675.235,1830.233,1718.1,1830.209Zm-80.121,127.558h74.547q2.213-1.261,4.328-2.667-41.608-.015-83.217-.008Q1635.757,1956.5,1637.979,1957.767Zm37.273-140.912a75.445,75.445,0,0,0-19.875,2.649q19.879.005,39.759,0A75.355,75.355,0,0,0,1675.252,1816.855Zm-1.848,150.736h3.7a75.233,75.233,0,0,0,18.336-2.713q-20.191,0-40.38,0A75.276,75.276,0,0,0,1673.4,1967.591Z" transform="translate(-115.946 0)" fill="rgba(51,119,103,0.55)"/>
    <path id="Path_1471" data-name="Path 1471" d="M2485.831,2446.795h-72.206q-.048.634-.074,1.274H2485.9Q2485.879,2447.429,2485.831,2446.795Zm-16.131,4.726h-19.727q-18.2,0-36.4.006c.022.426.052.848.089,1.269H2485.8c.037-.421.066-.844.089-1.269Q2477.792,2451.514,2469.7,2451.521Zm15.457-9.438H2414.3q-.135.64-.248,1.287H2485.4Q2485.293,2442.722,2485.157,2442.083Zm-70.769,15.426h70.68q.144-.639.263-1.287-35.6,0-71.2.011C2414.206,2456.659,2414.294,2457.086,2414.388,2457.508Zm.946,3.433c.143.43.291.855.449,1.278h67.891q.238-.638.451-1.286H2450Q2432.667,2460.934,2415.334,2460.942Zm68.492-23.559h-68.2q-.228.631-.43,1.274,34.527,0,69.058,0Q2484.054,2438.016,2483.826,2437.383Zm-65.906,29.524h63.615q.338-.623.655-1.26-32.46,0-64.921.01Q2417.583,2466.289,2417.92,2466.907Zm63.821-34.25h-64.027c-.224.424-.442.853-.649,1.288q32.661,0,65.32-.011Q2482.076,2433.288,2481.741,2432.657Zm-60.7,39.03h57.372q.5-.653.978-1.328-29.661,0-59.32.008Q2420.541,2471.039,2421.042,2471.687Zm58.623-42.47q-.448-.658-.925-1.3h-58.024q-.481.645-.935,1.311Q2449.723,2429.232,2479.665,2429.217Zm-3.818-4.7c-.428-.446-.867-.882-1.319-1.305h-49.6q-.672.63-1.31,1.3Q2449.732,2424.53,2475.847,2424.514Zm-50.5,51.848h48.758q.688-.627,1.344-1.291-25.719,0-51.439.008Q2424.663,2475.737,2425.349,2476.362Zm44.96-56.567q-.963-.667-1.971-1.271h-37.221q-1.017.61-1.989,1.283Q2449.719,2419.807,2470.31,2419.8Zm-38.486,61.273h35.809q1.063-.6,2.079-1.281-19.986-.008-39.974,0Q2430.756,2480.463,2431.824,2481.069Zm17.9-67.688a36.246,36.246,0,0,0-9.547,1.272q9.549,0,19.1,0A36.211,36.211,0,0,0,2449.728,2413.381Zm-.887,72.407h1.775a36.132,36.132,0,0,0,8.808-1.3q-9.7,0-19.4,0A36.119,36.119,0,0,0,2448.84,2485.788Z" transform="translate(-511.731 -290.182)" fill="#96d9c9"/>
    <g id="Group_2526" data-name="Group 2526" transform="translate(1824.885 1977.357)">
      <path id="Path_1472" data-name="Path 1472" d="M2300.886,2129.529a7.29,7.29,0,0,0-5.565,1.254,12.868,12.868,0,0,0-3.8,4.4c-1.857,3.3-2.348,7.623-2.245,11.4,4.184-.384,7.6-3.864,9.218-5.737,2.562-2.962,5.394-9.87,2.392-11.323" transform="translate(-2276.155 -2129.391)" fill="#e1e1e1"/>
      <path id="Path_1473" data-name="Path 1473" d="M2270.243,2157.306a6.216,6.216,0,0,0,1.833-5.965,8.253,8.253,0,0,0-3.819-5.107,3.478,3.478,0,0,0-2.869-.594,2.66,2.66,0,0,0-1.612,2.159,5.391,5.391,0,0,0,.466,2.76c1.214,3,2.941,5.684,6,6.746" transform="translate(-2263.739 -2137.236)" fill="#e1e1e1"/>
      <g id="Group_2523" data-name="Group 2523" transform="translate(3.234 13.161)">
        <path id="Path_1474" data-name="Path 1474" d="M2270.042,2174.061a3.3,3.3,0,0,1,.244-.755q.317-.823.772-2.012a30.574,30.574,0,0,0,1.884-6.8,13.976,13.976,0,0,0-.753-6.916,16.429,16.429,0,0,0-1.4-2.56,2.693,2.693,0,0,1,.541.585,8.851,8.851,0,0,1,1.1,1.874,13.4,13.4,0,0,1,.878,7.063,26.9,26.9,0,0,1-2.007,6.849c-.355.841-.662,1.512-.881,1.971A3.275,3.275,0,0,1,2270.042,2174.061Z" transform="translate(-2270.038 -2155.018)" fill="#ececec"/>
      </g>
      <g id="Group_2524" data-name="Group 2524" transform="translate(2.721 5.208)">
        <path id="Path_1475" data-name="Path 1475" d="M2288.427,2139.532a1.244,1.244,0,0,1-.177.29l-.568.788-2.123,2.867c-1.8,2.418-4.267,5.766-6.943,9.5s-5.052,7.154-6.763,9.634c-.833,1.2-1.519,2.192-2.032,2.933-.224.314-.41.575-.564.79-.132.179-.207.269-.218.262a1.232,1.232,0,0,1,.156-.3l.507-.829c.446-.716,1.106-1.74,1.936-3,1.657-2.518,4-5.961,6.679-9.7s5.185-7.066,7.036-9.445c.925-1.19,1.683-2.146,2.217-2.8l.621-.746C2288.335,2139.609,2288.416,2139.524,2288.427,2139.532Z" transform="translate(-2269.038 -2139.532)" fill="#ececec"/>
      </g>
      <path id="Path_1476" data-name="Path 1476" d="M2282.2,2173.949a14.538,14.538,0,0,1,12.912-3.119c1.137.286,2.412.914,2.578,2.074s-.887,2.127-1.915,2.7a12.419,12.419,0,0,1-13.714-1.366" transform="translate(-2272.65 -2149.348)" fill="#e1e1e1"/>
      <g id="Group_2525" data-name="Group 2525" transform="translate(3.199 23.387)">
        <path id="Path_1477" data-name="Path 1477" d="M2286.539,2175.287c-.01.075-1.076-.134-2.8-.094a16.929,16.929,0,0,0-3,.353,17.175,17.175,0,0,0-6.709,3.014,16.956,16.956,0,0,0-2.259,2.012c-1.178,1.265-1.729,2.2-1.792,2.158a3.011,3.011,0,0,1,.362-.668,6.127,6.127,0,0,1,.5-.74,10.558,10.558,0,0,1,.738-.924,15.42,15.42,0,0,1,2.249-2.109,16.406,16.406,0,0,1,6.845-3.074,15.352,15.352,0,0,1,3.07-.28,10.471,10.471,0,0,1,1.182.061,6.335,6.335,0,0,1,.884.117A3.065,3.065,0,0,1,2286.539,2175.287Z" transform="translate(-2269.969 -2174.931)" fill="#ececec"/>
      </g>
    </g>
    <g id="Group_2530" data-name="Group 2530" transform="translate(1547.267 1934.267)">
      <path id="Path_1478" data-name="Path 1478" d="M1726.552,2045.945a7.285,7.285,0,0,0-1.245,5.567,12.865,12.865,0,0,0,2.354,5.317c2.186,3.088,5.887,5.383,9.351,6.905,1.441-3.946-.245-8.52-1.246-10.786-1.582-3.582-6.616-9.1-9.214-7" transform="translate(-1724.148 -2045.485)" fill="#8698b8"/>
      <path id="Path_1479" data-name="Path 1479" d="M1735.781,2090.908a6.215,6.215,0,0,0-4.608-4.207,8.249,8.249,0,0,0-6.25,1.27,3.475,3.475,0,0,0-1.762,2.339,2.658,2.658,0,0,0,1.263,2.38,5.391,5.391,0,0,0,2.694.759c3.233.185,6.4-.229,8.664-2.541" transform="translate(-1723.15 -2065.45)" fill="#8698b8"/>
      <g id="Group_2527" data-name="Group 2527" transform="translate(5.308 24.348)">
        <path id="Path_1480" data-name="Path 1480" d="M1750.381,2102.147a3.381,3.381,0,0,1-.578-.545l-1.489-1.558a30.613,30.613,0,0,0-5.341-4.61,13.988,13.988,0,0,0-6.574-2.275,16.513,16.513,0,0,0-2.914.175,2.714,2.714,0,0,1,.76-.238,8.858,8.858,0,0,1,2.166-.2,13.41,13.41,0,0,1,6.76,2.226,26.917,26.917,0,0,1,5.334,4.742c.608.68,1.083,1.245,1.406,1.64A3.251,3.251,0,0,1,1750.381,2102.147Z" transform="translate(-1733.485 -2092.897)" fill="#8698b8"/>
      </g>
      <g id="Group_2528" data-name="Group 2528" transform="translate(5.866 4.998)">
        <path id="Path_1481" data-name="Path 1481" d="M1734.573,2055.217a1.2,1.2,0,0,1,.186.285l.47.849,1.685,3.146c1.418,2.658,3.388,6.322,5.621,10.338s4.307,7.625,5.817,10.232l1.783,3.09c.188.337.344.617.473.848a1.19,1.19,0,0,1,.143.309,1.208,1.208,0,0,1-.206-.271c-.145-.221-.321-.489-.532-.812-.457-.709-1.1-1.745-1.884-3.032-1.568-2.574-3.679-6.165-5.915-10.186s-4.171-7.707-5.531-10.4c-.68-1.345-1.22-2.439-1.581-3.2l-.409-.881A1.184,1.184,0,0,1,1734.573,2055.217Z" transform="translate(-1734.571 -2055.217)" fill="#8698b8"/>
      </g>
      <path id="Path_1482" data-name="Path 1482" d="M1757.754,2079.714a14.539,14.539,0,0,1,2.7-13.006c.745-.906,1.858-1.79,2.978-1.444s1.543,1.712,1.618,2.884a12.421,12.421,0,0,1-7.1,11.815" transform="translate(-1739.724 -2055.069)" fill="#8698b8"/>
      <g id="Group_2529" data-name="Group 2529" transform="translate(18.536 15.035)">
        <path id="Path_1483" data-name="Path 1483" d="M1762.331,2074.763c.063.042-.581.915-1.284,2.495a16.983,16.983,0,0,0-.965,2.866,17.2,17.2,0,0,0-.143,7.354,16.926,16.926,0,0,0,.853,2.9c.64,1.605,1.249,2.5,1.185,2.543a3.037,3.037,0,0,1-.45-.613,6.273,6.273,0,0,1-.454-.768,10.342,10.342,0,0,1-.52-1.063,15.362,15.362,0,0,1-.945-2.934,16.4,16.4,0,0,1,.146-7.5,15.384,15.384,0,0,1,1.058-2.895,10.376,10.376,0,0,1,.561-1.042,6.281,6.281,0,0,1,.484-.75A3.027,3.027,0,0,1,1762.331,2074.763Z" transform="translate(-1759.244 -2074.762)" fill="#8698b8"/>
      </g>
    </g>
    <g id="Group_2534" data-name="Group 2534" transform="translate(1627.242 2191.139)">
      <path id="Path_1484" data-name="Path 1484" d="M1879.83,2586.887a7.281,7.281,0,0,0,5.689-.419,12.86,12.86,0,0,0,4.407-3.792c2.323-2.986,3.448-7.193,3.9-10.949-4.195-.236-8.085,2.7-9.964,4.314-2.971,2.551-6.791,8.966-4.035,10.846" transform="translate(-1878.88 -2558.343)" fill="#8698b8"/>
      <path id="Path_1485" data-name="Path 1485" d="M1918.993,2568.108a6.217,6.217,0,0,0-2.693,5.63,8.251,8.251,0,0,0,3.024,5.615,3.476,3.476,0,0,0,2.75,1.01,2.66,2.66,0,0,0,1.913-1.9,5.393,5.393,0,0,0-.053-2.8c-.759-3.148-2.071-6.056-4.94-7.559" transform="translate(-1897.076 -2556.589)" fill="#8698b8"/>
      <g id="Group_2531" data-name="Group 2531" transform="translate(21.732)">
        <path id="Path_1486" data-name="Path 1486" d="M1926.4,2545.677a3.37,3.37,0,0,1-.354.71l-1.061,1.876a30.6,30.6,0,0,0-2.867,6.447,13.98,13.98,0,0,0-.274,6.952,16.457,16.457,0,0,0,1.011,2.738,2.73,2.73,0,0,1-.448-.658,8.891,8.891,0,0,1-.814-2.016,13.412,13.412,0,0,1,.173-7.116,26.929,26.929,0,0,1,3-6.478c.475-.778.878-1.4,1.163-1.82A3.27,3.27,0,0,1,1926.4,2545.677Z" transform="translate(-1921.197 -2545.677)" fill="#8698b8"/>
      </g>
      <g id="Group_2532" data-name="Group 2532" transform="translate(4.29 0.008)">
        <path id="Path_1487" data-name="Path 1487" d="M1887.233,2569.6c-.009-.01.067-.1.219-.261l.677-.7,2.523-2.522c2.133-2.126,5.071-5.073,8.269-8.373s6.052-6.331,8.11-8.529l2.442-2.6.674-.7c.157-.157.244-.236.254-.227a1.213,1.213,0,0,1-.2.275l-.623.745c-.546.642-1.351,1.558-2.356,2.68-2.01,2.246-4.836,5.306-8.038,8.61s-6.17,6.223-8.351,8.3c-1.09,1.041-1.981,1.874-2.605,2.44l-.725.646A1.216,1.216,0,0,1,1887.233,2569.6Z" transform="translate(-1887.233 -2545.693)" fill="#8698b8"/>
      </g>
      <path id="Path_1488" data-name="Path 1488" d="M1902.341,2554.377a14.54,14.54,0,0,1-13.231,1.181c-1.083-.451-2.25-1.26-2.243-2.433s1.192-1.972,2.292-2.384a12.42,12.42,0,0,1,13.363,3.374" transform="translate(-1882.765 -2547.788)" fill="#8698b8"/>
      <g id="Group_2533" data-name="Group 2533" transform="translate(9.338 1.011)">
        <path id="Path_1489" data-name="Path 1489" d="M1897.063,2552.564c.022-.071,1.045.292,2.76.506a16.975,16.975,0,0,0,3.023.1,17.219,17.219,0,0,0,7.08-1.991,16.977,16.977,0,0,0,2.532-1.658c1.352-1.078,2.034-1.92,2.09-1.871a2.935,2.935,0,0,1-.456.609,6.223,6.223,0,0,1-.6.657,10.34,10.34,0,0,1-.867.806,15.436,15.436,0,0,1-2.535,1.753,16.371,16.371,0,0,1-7.224,2.032,15.408,15.408,0,0,1-3.077-.175,10.584,10.584,0,0,1-1.16-.235,6.215,6.215,0,0,1-.857-.247A2.972,2.972,0,0,1,1897.063,2552.564Z" transform="translate(-1897.062 -2547.644)" fill="#8698b8"/>
      </g>
    </g>
    <g id="Group_2537" data-name="Group 2537" transform="translate(1534.774 2146.995)">
      <circle id="Ellipse_26" data-name="Ellipse 26" cx="5.128" cy="5.128" r="5.128" transform="matrix(0.562, -0.827, 0.827, 0.562, 0, 16.766)" fill="#8698b8"/>
      <path id="Path_1490" data-name="Path 1490" d="M1740.908,2464.839a5.128,5.128,0,1,1-5.135-5.12A5.128,5.128,0,0,1,1740.908,2464.839Z" transform="translate(-1714.305 -2459.719)" fill="#8698b8"/>
      <path id="Path_1491" data-name="Path 1491" d="M1740.966,2506.734a5.146,5.146,0,1,1-5.135-5.572A5.367,5.367,0,0,1,1740.966,2506.734Z" transform="translate(-1714.334 -2479.879)" fill="#8698b8"/>
      <g id="Group_2535" data-name="Group 2535" transform="translate(5.539 16.351)">
        <path id="Path_1492" data-name="Path 1492" d="M1724.059,2501.411c-.219.323-3.63-1.614-7.617-4.325s-7.043-5.171-6.824-5.494,3.629,1.615,7.618,4.326S1724.278,2501.089,1724.059,2501.411Z" transform="translate(-1709.606 -2491.557)" fill="#8698b8"/>
      </g>
      <g id="Group_2536" data-name="Group 2536" transform="translate(7.759 4.737)">
        <path id="Path_1493" data-name="Path 1493" d="M1726.571,2468.974c.239.309-2.394,2.748-5.881,5.449s-6.508,4.643-6.746,4.334,2.394-2.748,5.882-5.45S1726.332,2468.666,1726.571,2468.974Z" transform="translate(-1713.929 -2468.942)" fill="#8698b8"/>
      </g>
    </g>
    <g id="Group_2547" data-name="Group 2547" transform="translate(1720.862 1943.076)">
      <g id="Group_2538" data-name="Group 2538" transform="translate(29.063 102.825)">
        <path id="Path_1494" data-name="Path 1494" d="M2117.957,2262.864a48.925,48.925,0,0,1,0,8.452,48.667,48.667,0,0,1,0-8.452Z" transform="translate(-2117.773 -2262.864)" fill="#e1e1e1"/>
      </g>
      <g id="Group_2539" data-name="Group 2539" transform="translate(29.063 85.922)">
        <path id="Path_1495" data-name="Path 1495" d="M2117.957,2229.95a48.917,48.917,0,0,1,0,8.451,48.658,48.658,0,0,1,0-8.451Z" transform="translate(-2117.773 -2229.95)" fill="#e1e1e1"/>
      </g>
      <g id="Group_2540" data-name="Group 2540" transform="translate(29.063 69.019)">
        <path id="Path_1496" data-name="Path 1496" d="M2117.957,2197.035a48.911,48.911,0,0,1,0,8.451,48.652,48.652,0,0,1,0-8.451Z" transform="translate(-2117.773 -2197.035)" fill="#e1e1e1"/>
      </g>
      <g id="Group_2541" data-name="Group 2541" transform="translate(29.063 52.116)">
        <path id="Path_1497" data-name="Path 1497" d="M2117.957,2164.12a48.92,48.92,0,0,1,0,8.452,48.661,48.661,0,0,1,0-8.452Z" transform="translate(-2117.773 -2164.12)" fill="#e1e1e1"/>
      </g>
      <g id="Group_2542" data-name="Group 2542" transform="translate(29.063 35.212)">
        <path id="Path_1498" data-name="Path 1498" d="M2117.957,2131.205a48.92,48.92,0,0,1,0,8.452,48.661,48.661,0,0,1,0-8.452Z" transform="translate(-2117.773 -2131.205)" fill="#e1e1e1"/>
      </g>
      <g id="Group_2543" data-name="Group 2543" transform="translate(24.436 22.936)">
        <path id="Path_1499" data-name="Path 1499" d="M2108.763,2107.484a24.379,24.379,0,0,1,4.226-.184l.584,0h.183v.182a20.066,20.066,0,0,1-.181,3.641,19.916,19.916,0,0,1-.182-3.641l.181.181-.584,0A24.56,24.56,0,0,1,2108.763,2107.484Z" transform="translate(-2108.763 -2107.3)" fill="#e1e1e1"/>
      </g>
      <g id="Group_2544" data-name="Group 2544" transform="translate(7.533 22.936)">
        <path id="Path_1500" data-name="Path 1500" d="M2075.849,2107.484a48.591,48.591,0,0,1,8.451,0,48.849,48.849,0,0,1-8.451,0Z" transform="translate(-2075.849 -2107.3)" fill="#e1e1e1"/>
      </g>
      <g id="Group_2545" data-name="Group 2545" transform="translate(0 13.565)">
        <path id="Path_1501" data-name="Path 1501" d="M2061.364,2089.053a48.532,48.532,0,0,1,0,8.452,48.92,48.92,0,0,1,0-8.452Z" transform="translate(-2061.181 -2089.053)" fill="#e1e1e1"/>
      </g>
      <g id="Group_2546" data-name="Group 2546" transform="translate(0 0)">
        <path id="Path_1502" data-name="Path 1502" d="M2061.364,2062.638a17.826,17.826,0,0,1,0,5.114,17.967,17.967,0,0,1,0-5.114Z" transform="translate(-2061.181 -2062.638)" fill="#e1e1e1"/>
      </g>
    </g>
    <g id="Group_2556" data-name="Group 2556" transform="translate(1568.62 2085.384)" opacity="0.6">
      <g id="Group_2555" data-name="Group 2555">
        <g id="Group_2548" data-name="Group 2548" transform="translate(50.483 49.232)">
          <path id="Path_1503" data-name="Path 1503" d="M1863.032,2435.8a12.274,12.274,0,1,1,2.112.183A6.237,6.237,0,0,1,1863.032,2435.8Z" transform="translate(-1863.032 -2435.613)" fill="#b5a4dd"/>
        </g>
        <g id="Group_2549" data-name="Group 2549" transform="translate(32.052 49.232)">
          <path id="Path_1504" data-name="Path 1504" d="M1827.142,2435.8a58.044,58.044,0,0,1,9.214,0,58.044,58.044,0,0,1-9.214,0Z" transform="translate(-1827.142 -2435.613)" fill="#b5a4dd"/>
        </g>
        <g id="Group_2550" data-name="Group 2550" transform="translate(13.621 49.232)">
          <path id="Path_1505" data-name="Path 1505" d="M1791.252,2435.8a58.059,58.059,0,0,1,9.215,0,58.059,58.059,0,0,1-9.215,0Z" transform="translate(-1791.252 -2435.613)" fill="#b5a4dd"/>
        </g>
        <g id="Group_2551" data-name="Group 2551" transform="translate(0 45.189)">
          <path id="Path_1506" data-name="Path 1506" d="M1764.915,2427.741a24.464,24.464,0,0,1,.184,4.225c.039.041-.347-.346-.183-.182h.431l.419,0,.793.011,1.343.039a4.2,4.2,0,0,1,1.238.13,4.244,4.244,0,0,1-1.238.13l-1.343.039-.793.011-.419,0-.215,0h-.216c.163.164-.224-.224-.184-.185A24.451,24.451,0,0,1,1764.915,2427.741Z" transform="translate(-1764.728 -2427.741)" fill="#b5a4dd"/>
        </g>
        <g id="Group_2552" data-name="Group 2552" transform="translate(0.003 28.804)">
          <path id="Path_1507" data-name="Path 1507" d="M1764.917,2395.835a45.735,45.735,0,0,1,0,8.193,45.917,45.917,0,0,1,0-8.193Z" transform="translate(-1764.734 -2395.835)" fill="#b5a4dd"/>
        </g>
        <g id="Group_2553" data-name="Group 2553" transform="translate(0.003 12.419)">
          <path id="Path_1508" data-name="Path 1508" d="M1764.917,2363.929a45.721,45.721,0,0,1,0,8.192,45.9,45.9,0,0,1,0-8.192Z" transform="translate(-1764.734 -2363.929)" fill="#b5a4dd"/>
        </g>
        <g id="Group_2554" data-name="Group 2554" transform="translate(0.003)">
          <path id="Path_1509" data-name="Path 1509" d="M1764.917,2339.747a12.284,12.284,0,1,1-.183,2.114A6.237,6.237,0,0,1,1764.917,2339.747Z" transform="translate(-1764.734 -2339.747)" fill="#b5a4dd"/>
        </g>
      </g>
    </g>
    <path id="Path_1510" data-name="Path 1510" d="M1801.649,2336.212a7.316,7.316,0,0,0-2.357-7.907,7.144,7.144,0,0,0-4.09-1.463,5.9,5.9,0,0,1-5.2-3.536,12.419,12.419,0,0,0-21.978-1.829c-.788,1.245-1.426,2.7-2.71,3.42-1.638.917-3.658.3-5.531.178-5.555-.35-10.816,5.578-10.527,11.137Z" transform="translate(-188.579 -242.67)" fill="#8698b8"/>
    <path id="Path_1511" data-name="Path 1511" d="M2063.276,2031.81a6.429,6.429,0,0,0-2.071-6.948,6.282,6.282,0,0,0-3.594-1.285,5.187,5.187,0,0,1-4.565-3.107,10.913,10.913,0,0,0-19.312-1.606c-.691,1.093-1.252,2.372-2.381,3-1.438.805-3.213.261-4.859.156-4.881-.308-9.5,4.9-9.25,9.786Z" transform="translate(-318.94 -95.803)" fill="#f5f5f5"/>
    <g id="Group_2561" data-name="Group 2561" transform="translate(1536.827 1923.709)">
      <g id="Group_2557" data-name="Group 2557" transform="translate(189.509 46.073)">
        <circle id="Ellipse_27" data-name="Ellipse 27" cx="47.045" cy="47.045" r="47.045" transform="translate(0 66.532) rotate(-45)" fill="#f8f8f8"/>
      </g>
      <path id="Path_1512" data-name="Path 1512" d="M1991.065,2438.789c-1.117,28.3-21.954,51.709-50.266,52.26a51.273,51.273,0,0,1-52.26-50.267c-.55-28.312,22.032-54.431,50.267-52.26C1968.919,2390.838,1992.085,2412.973,1991.065,2438.789Z" transform="translate(-1793.158 -2201.737)" fill="#f8f8f8"/>
      <circle id="Ellipse_28" data-name="Ellipse 28" cx="47.971" cy="47.971" r="47.971" transform="translate(0 67.841) rotate(-45)" fill="#f8f8f8"/>
      <g id="Group_2558" data-name="Group 2558" transform="translate(166.049 123.677)">
        <path id="Path_1513" data-name="Path 1513" d="M2110.075,2265.773c.745.687-17.434,21.608-40.6,46.724s-42.553,44.928-43.3,44.242,17.43-21.6,40.6-46.728S2109.331,2265.086,2110.075,2265.773Z" transform="translate(-2026.158 -2265.756)" fill="#f8f8f8"/>
      </g>
      <g id="Group_2559" data-name="Group 2559" transform="translate(98.016 58.512)">
        <path id="Path_1514" data-name="Path 1514" d="M2035.991,2169.931c-.216.99-32.25-5.139-71.541-13.689s-70.983-16.285-70.768-17.274,32.243,5.139,71.548,13.691S2036.206,2168.942,2035.991,2169.931Z" transform="translate(-1893.681 -2138.863)" fill="#f8f8f8"/>
      </g>
      <g id="Group_2560" data-name="Group 2560" transform="translate(46.814 70.717)">
        <path id="Path_1515" data-name="Path 1515" d="M1870.709,2297.375c-.421.26-5.4-6.865-12.949-18.71s-17.615-28.431-28.219-47.051-19.723-35.758-26.053-48.294-9.915-20.456-9.475-20.686c.459-.239,4.853,7.254,11.762,19.461l26.954,47.7,27.25,47.525C1866.949,2289.5,1871.149,2297.1,1870.709,2297.375Z" transform="translate(-1793.978 -2162.629)" fill="#f8f8f8"/>
      </g>
    </g>
    <g id="Group_2591" data-name="Group 2591" transform="translate(1731.224 1954.623)">
      <g id="Group_2590" data-name="Group 2590">
        <path id="Path_1516" data-name="Path 1516" d="M2229.284,2117.911c.246,4.019.522,5.239,2.012,8.444.884,1.9,2.128,3.663,2.619,5.7.466,1.937.215,3.981.572,5.941.584,3.2,2.7,5.86,4.3,8.694s2.668,6.421,1.085,9.263l-16.295-1.925-1.149-20.229Z" transform="translate(-2149.982 -2101.073)" fill="#1a2e35"/>
        <path id="Path_1517" data-name="Path 1517" d="M2161.048,2104.554c-2.11,4.475.824,8.95-1.286,13.425a34.9,34.9,0,0,0-2.657,6.842c-.5,2.151-.6,4.418-1.48,6.446-1.4,3.231-4.571,5.416-6.041,8.615-2.178,4.74.136,10.678,4.3,13.821s9.688,3.927,14.89,3.563a20.33,20.33,0,0,0,9.067-2.472,10.436,10.436,0,0,0,5.234-7.505" transform="translate(-2114.141 -2094.576)" fill="#1a2e35"/>
        <path id="Path_1518" data-name="Path 1518" d="M2196.86,2089.043c10.487,4.649,12.57,21.871,12.623,24.189.063,2.766,1.535,3.339,3.373,4.784s3.619,3.2,4.127,5.443c.4,1.767-.019,3.72.826,5.332,1.01,1.924,3.4,2.639,5.256,3.827,3.506,2.245,5.236,6.469,5.431,10.547s-.927,8.092-2.038,12.028c-.441,1.561-.989,3.266-2.4,4.117a6.892,6.892,0,0,1-3.738.62l-19.913-.445c-5.079-.113-10.293-.252-14.988-2.14a18.777,18.777,0,0,1-9.2-7.727,15.217,15.217,0,0,1-1.658-11.626c.828-2.987,2.641-5.686,3.165-8.738.65-3.779-2.52-5.4-3.668-9.061s-2.1-12.457-.524-15.97" transform="translate(-2125.79 -2087.03)" fill="#1a2e35"/>
        <path id="Path_1519" data-name="Path 1519" d="M2182.3,2227.075l-3.275-10.5-.478,16.025s4.248,10.949,7.483,19.316a49.112,49.112,0,0,1-49.7.347l5.044-18.121-2.4-20.5-6.653,9.515-14.193-13.72s10.389-19.2,11.678-20.948c8.214-11.167,22.4-10.9,22.4-10.9l20.077,1.112s11.29-.631,18.706,8.3c0,0,7.248,11.063,13.2,38.365Z" transform="translate(-2099.246 -2130.109)" fill="#3c8f7c"/>
        <g id="Group_2562" data-name="Group 2562" transform="translate(31.055 58.304)">
          <path id="Path_1520" data-name="Path 1520" d="M2203.871,2200.259a2.12,2.12,0,0,1-.292.045c-.191.032-.482.041-.854.117a13.955,13.955,0,0,0-3.184.917,14.593,14.593,0,0,0-4.377,2.873,13.97,13.97,0,0,0-2.092,2.53,9.786,9.786,0,0,0-1.456,3.356,4.217,4.217,0,0,0,.063,1.931,3.064,3.064,0,0,0,1.156,1.6,2.072,2.072,0,0,0,1.948.307,2.39,2.39,0,0,0,1.352-1.573,2.959,2.959,0,0,0-.155-2.189,4.752,4.752,0,0,0-1.525-1.773,9.712,9.712,0,0,0-4.651-1.73,14.287,14.287,0,0,0-5.266.468,19.36,19.36,0,0,0-5.13,2.141,14.492,14.492,0,0,0-4.245,3.865,5.132,5.132,0,0,0-1.014,2.67,2.422,2.422,0,0,0,.357,1.349,3.317,3.317,0,0,0,1.026,1l-.033-.017a1.961,1.961,0,0,0,1.435.06,2.11,2.11,0,0,0,1.023-1.073,7.561,7.561,0,0,0,.594-3.211,9.192,9.192,0,0,0-.526-3.211,7.209,7.209,0,0,0-1.784-2.642,9.609,9.609,0,0,0-5.66-2.55,15.274,15.274,0,0,0-6.065.683,10.386,10.386,0,0,0-5.041,2.823,3.243,3.243,0,0,0,.327,4.8,2.236,2.236,0,0,0,1.152.5,1.872,1.872,0,0,0,1.186-.285,2.71,2.71,0,0,0,1.122-2.125,6.408,6.408,0,0,0-.271-2.452c-.128-.389-.3-.764-.44-1.141-.078-.186-.141-.378-.229-.557l-.285-.525a14.157,14.157,0,0,0-2.727-3.633,16.956,16.956,0,0,0-6.687-4,16.227,16.227,0,0,0-5.863-.777,15.2,15.2,0,0,0-3.689.683l-.924.332c-.208.073-.32.1-.32.1s.1-.052.305-.136l.915-.367a14.479,14.479,0,0,1,3.7-.756,16.185,16.185,0,0,1,5.934.725,17.076,17.076,0,0,1,6.806,4.013,14.361,14.361,0,0,1,2.8,3.685l.292.536c.092.182.157.378.238.567.149.386.32.765.455,1.167a6.7,6.7,0,0,1,.292,2.569,3.016,3.016,0,0,1-1.258,2.361,2.183,2.183,0,0,1-1.384.335,2.545,2.545,0,0,1-1.321-.566,3.765,3.765,0,0,1-1.355-2.51,2.987,2.987,0,0,1,.209-1.475,4.725,4.725,0,0,1,.759-1.285,10.689,10.689,0,0,1,5.2-2.943,15.6,15.6,0,0,1,6.206-.705,9.961,9.961,0,0,1,5.874,2.644,7.577,7.577,0,0,1,1.873,2.774,9.515,9.515,0,0,1,.551,3.341,7.883,7.883,0,0,1-.633,3.374,2.463,2.463,0,0,1-1.212,1.25,2.322,2.322,0,0,1-1.705-.058l-.018-.006-.016-.011a3.659,3.659,0,0,1-1.139-1.122,2.786,2.786,0,0,1-.411-1.544,5.465,5.465,0,0,1,1.08-2.868,14.8,14.8,0,0,1,4.357-3.961,19.668,19.668,0,0,1,5.229-2.171,14.617,14.617,0,0,1,5.39-.464,10.006,10.006,0,0,1,4.8,1.807,5.058,5.058,0,0,1,1.612,1.894,3.268,3.268,0,0,1,.16,2.4,2.671,2.671,0,0,1-1.53,1.748,2.35,2.35,0,0,1-2.2-.349,3.322,3.322,0,0,1-1.248-1.751,4.436,4.436,0,0,1-.058-2.048,9.96,9.96,0,0,1,1.512-3.431,14.069,14.069,0,0,1,2.145-2.551,14.554,14.554,0,0,1,4.458-2.857,13.273,13.273,0,0,1,3.225-.862A9.57,9.57,0,0,1,2203.871,2200.259Z" transform="translate(-2141.83 -2198.656)" fill="#fafafa"/>
        </g>
        <g id="Group_2563" data-name="Group 2563" transform="translate(81.427 82.855)">
          <path id="Path_1521" data-name="Path 1521" d="M2260.094,2246.462a14.342,14.342,0,0,0-1.822.88,9.294,9.294,0,0,0-3.6,4.033,8.336,8.336,0,0,0-.581,1.711,3.5,3.5,0,0,0,0,1.891,1.461,1.461,0,0,0,.512.778.963.963,0,0,0,.887.1,2.015,2.015,0,0,0,1.073-1.679,3.865,3.865,0,0,0-2.141-3.8,4.9,4.9,0,0,0-4.785.45,6.86,6.86,0,0,0-2.709,4.161,3.1,3.1,0,0,0,.189,2.281,1.457,1.457,0,0,0,1.81.713,1.839,1.839,0,0,0,1.025-1.678,3.633,3.633,0,0,0-.607-1.925,5.624,5.624,0,0,0-2.856-2.3,5.286,5.286,0,0,0-3.044-.183,5.82,5.82,0,0,0-2.117.983,7.324,7.324,0,0,0-1.406,1.44c-.005,0,.015-.044.058-.122a3.041,3.041,0,0,1,.212-.333,5.193,5.193,0,0,1,1.049-1.1,5.817,5.817,0,0,1,2.155-1.07,5.468,5.468,0,0,1,3.18.138,5.872,5.872,0,0,1,3.028,2.385,3.917,3.917,0,0,1,.671,2.09,2.166,2.166,0,0,1-1.211,1.981,1.583,1.583,0,0,1-1.278.014,2.131,2.131,0,0,1-.967-.854,3.43,3.43,0,0,1-.24-2.543,7.19,7.19,0,0,1,2.854-4.386,5.244,5.244,0,0,1,5.148-.468,4.2,4.2,0,0,1,2.317,4.169,2.325,2.325,0,0,1-1.292,1.936,1.282,1.282,0,0,1-1.183-.141,1.759,1.759,0,0,1-.623-.945,3.762,3.762,0,0,1,.019-2.044,8.562,8.562,0,0,1,.622-1.758,9.227,9.227,0,0,1,3.763-4.046A6.236,6.236,0,0,1,2260.094,2246.462Z" transform="translate(-2239.916 -2246.462)" fill="#fafafa"/>
        </g>
        <g id="Group_2564" data-name="Group 2564" transform="translate(45.411 88.213)">
          <path id="Path_1522" data-name="Path 1522" d="M2203.757,2261.668a.623.623,0,0,1-.174-.031l-.5-.125a15.67,15.67,0,0,0-1.953-.328,14.877,14.877,0,0,0-7.123,1,13.375,13.375,0,0,0-2.137,1.084,6.073,6.073,0,0,0-1.861,1.735,2.827,2.827,0,0,0-.356,2.549,2.274,2.274,0,0,0,.788,1.1,1.663,1.663,0,0,0,1.3.281,2.477,2.477,0,0,0,1.81-2.076,4.543,4.543,0,0,0-.816-2.973,8.973,8.973,0,0,0-5.366-3.81,8.8,8.8,0,0,0-6.5.977,8,8,0,0,0-2.4,2.078,4.115,4.115,0,0,0-.622,1.377,1.966,1.966,0,0,0,.116,1.39,1.363,1.363,0,0,0,1.075.718,2.014,2.014,0,0,0,1.28-.371,2.453,2.453,0,0,0,.948-2.336,5.974,5.974,0,0,0-.819-2.408,8.64,8.64,0,0,0-1.47-1.867,9.575,9.575,0,0,0-3.5-2.1,8.936,8.936,0,0,0-3.065-.479,10.549,10.549,0,0,0-2.626.424.62.62,0,0,1,.162-.07l.49-.174a8.008,8.008,0,0,1,1.97-.323,8.885,8.885,0,0,1,3.132.427,9.7,9.7,0,0,1,3.619,2.1,8.846,8.846,0,0,1,1.537,1.915,6.224,6.224,0,0,1,.877,2.523,3.38,3.38,0,0,1-.158,1.431,2.381,2.381,0,0,1-.91,1.2,2.322,2.322,0,0,1-1.493.435,1.7,1.7,0,0,1-1.343-.885,2.3,2.3,0,0,1-.155-1.627,4.426,4.426,0,0,1,.669-1.5,8.3,8.3,0,0,1,2.5-2.19,9.139,9.139,0,0,1,6.772-1.023,9.311,9.311,0,0,1,5.582,3.974,4.885,4.885,0,0,1,.859,3.214,2.81,2.81,0,0,1-2.089,2.358,2,2,0,0,1-1.564-.344,2.59,2.59,0,0,1-.9-1.258,3.072,3.072,0,0,1-.136-1.486,3.51,3.51,0,0,1,.541-1.334,6.32,6.32,0,0,1,1.965-1.809,13.491,13.491,0,0,1,2.192-1.086,14.682,14.682,0,0,1,7.235-.9A10.2,10.2,0,0,1,2203.757,2261.668Z" transform="translate(-2169.785 -2256.897)" fill="#fafafa"/>
        </g>
        <path id="Path_1523" data-name="Path 1523" d="M2082.067,2147.723c1.462.076,1.044,8.038,2.126,6.354s-.622-9.768.9-9.625c1.984.186,1.395,8.518,1.4,9.225,0,.687,1.024.7.988.064-.052-.917-.359-10.564,1.592-10.4,1.082.09.688,2.023.688,2.023s-.378,9.065.546,9.112,1.339-5.272,1.348-7.073c.009-1.778.858-2.519,1.643-1.881.535.434.639,5.945.588,7.726s-.274,6.665,1.793,4.3,4.529-3.432,5.384-3.263.9,1.428.013,1.835a11.742,11.742,0,0,0-2.49,1.961,11.2,11.2,0,0,0-1.52,2.036,8.638,8.638,0,0,0-1.089,2.524l2.771,33.2,2.034-2.54,11.6,11.217-6.055,6.967a11.369,11.369,0,0,1-16.97.392q-.246-.275-.474-.566a9.431,9.431,0,0,1-1.879-5.038l-3.833-43.05h-.034c-.083-4.784-1.383-8.42-1.608-10.887C2081.111,2147.749,2081.523,2147.694,2082.067,2147.723Z" transform="translate(-2081.358 -2113.442)" fill="#ffbf9d"/>
        <g id="Group_2588" data-name="Group 2588" transform="translate(46.199)">
          <g id="Group_2587" data-name="Group 2587">
            <g id="Group_2586" data-name="Group 2586">
              <g id="Group_2580" data-name="Group 2580" transform="translate(0.093 4.889)">
                <g id="Group_2565" data-name="Group 2565">
                  <path id="Path_1524" data-name="Path 1524" d="M2179.554,2141.78c.042-5.007,0-10.279,0-10.279s-6.437-1.146-7.676-9.577c-1.182-8.041.822-25.334.822-25.334h0c9.327-3.678,19.828-2.255,26.362,5.251h0l-1.016,40.661c-.118,4.721-4.271,8.379-9.324,8.213h0C2183.614,2150.55,2179.513,2146.551,2179.554,2141.78Z" transform="translate(-2171.5 -2094.645)" fill="#ffbf9d"/>
                </g>
                <g id="Group_2569" data-name="Group 2569" transform="translate(1.195 12.886)">
                  <g id="Group_2566" data-name="Group 2566" transform="translate(1.751 1.376)">
                    <path id="Path_1525" data-name="Path 1525" d="M2177.239,2123.379a1.08,1.08,0,0,0,1.028,1.1,1.033,1.033,0,0,0,1.124-.96,1.079,1.079,0,0,0-1.026-1.1A1.033,1.033,0,0,0,2177.239,2123.379Z" transform="translate(-2177.238 -2122.415)" fill="#1a2e35"/>
                  </g>
                  <g id="Group_2568" data-name="Group 2568">
                    <g id="Group_2567" data-name="Group 2567">
                      <path id="Path_1526" data-name="Path 1526" d="M2173.844,2120.846c.132.143.956-.453,2.118-.436,1.16,0,2.005.607,2.133.467.063-.062-.071-.318-.438-.593a2.959,2.959,0,0,0-1.706-.547,2.845,2.845,0,0,0-1.688.524C2173.9,2120.529,2173.779,2120.782,2173.844,2120.846Z" transform="translate(-2173.828 -2119.736)" fill="#1a2e35"/>
                    </g>
                  </g>
                </g>
                <g id="Group_2573" data-name="Group 2573" transform="translate(13.309 13.448)">
                  <g id="Group_2570" data-name="Group 2570" transform="translate(1.525 1.156)">
                    <path id="Path_1527" data-name="Path 1527" d="M2200.386,2124.045a1.081,1.081,0,0,0,1.028,1.1,1.032,1.032,0,0,0,1.123-.96,1.079,1.079,0,0,0-1.027-1.1A1.033,1.033,0,0,0,2200.386,2124.045Z" transform="translate(-2200.385 -2123.082)" fill="#1a2e35"/>
                  </g>
                  <g id="Group_2572" data-name="Group 2572">
                    <g id="Group_2571" data-name="Group 2571">
                      <path id="Path_1528" data-name="Path 1528" d="M2197.431,2121.941c.133.142.958-.454,2.119-.437,1.16,0,2,.608,2.133.466.063-.062-.07-.317-.439-.592a2.966,2.966,0,0,0-1.705-.547,2.836,2.836,0,0,0-1.688.523C2197.492,2121.625,2197.367,2121.877,2197.431,2121.941Z" transform="translate(-2197.415 -2120.831)" fill="#1a2e35"/>
                    </g>
                  </g>
                </g>
                <g id="Group_2575" data-name="Group 2575" transform="translate(6.061 13.451)">
                  <g id="Group_2574" data-name="Group 2574">
                    <path id="Path_1529" data-name="Path 1529" d="M2186.252,2130.508a7.752,7.752,0,0,0-1.883-.361c-.3-.034-.576-.1-.624-.3a1.511,1.511,0,0,1,.208-.876q.431-1.072.9-2.248a38.693,38.693,0,0,0,2.038-5.884,38.894,38.894,0,0,0-2.506,5.706q-.454,1.184-.867,2.262a1.721,1.721,0,0,0-.167,1.162.745.745,0,0,0,.483.439,2.035,2.035,0,0,0,.5.076A7.492,7.492,0,0,0,2186.252,2130.508Z" transform="translate(-2183.303 -2120.838)" fill="#1a2e35"/>
                  </g>
                </g>
                <g id="Group_2576" data-name="Group 2576" transform="translate(8.049 33.98)">
                  <path id="Path_1530" data-name="Path 1530" d="M2187.174,2163.688a21.413,21.413,0,0,0,11.305-2.876s-2.8,5.749-11.214,4.864Z" transform="translate(-2187.174 -2160.812)" fill="#ff9a6c"/>
                </g>
                <g id="Group_2577" data-name="Group 2577" transform="translate(9.351 25.156)">
                  <path id="Path_1531" data-name="Path 1531" d="M2189.827,2144.4a2.094,2.094,0,0,1,1.885-.756,1.912,1.912,0,0,1,1.311.724,1.212,1.212,0,0,1,.077,1.386,1.4,1.4,0,0,1-1.527.367,4.393,4.393,0,0,1-1.474-.9,1.286,1.286,0,0,1-.328-.347.389.389,0,0,1,.006-.432" transform="translate(-2189.708 -2143.63)" fill="#ff9a6c"/>
                </g>
                <g id="Group_2579" data-name="Group 2579" transform="translate(8.682 23.965)">
                  <g id="Group_2578" data-name="Group 2578">
                    <path id="Path_1532" data-name="Path 1532" d="M2192.143,2141.31c-.188-.014-.205,1.248-1.294,2.13s-2.43.728-2.442.9c-.019.079.3.248.864.271a3.147,3.147,0,0,0,2.038-.684,2.742,2.742,0,0,0,1-1.786C2192.366,2141.618,2192.229,2141.3,2192.143,2141.31Z" transform="translate(-2188.406 -2141.31)" fill="#1a2e35"/>
                  </g>
                </g>
              </g>
              <g id="Group_2581" data-name="Group 2581">
                <path id="Path_1533" data-name="Path 1533" d="M2195.314,2091.2c-3.079,4.391-11.231,8.907-17.069,9.955.681-.9,4.267-3.108,4.949-4.005-2.647,1.976-6.433,4.62-9.944,4.8a2.126,2.126,0,0,1-1.207-.188,1.628,1.628,0,0,1-.614-1.322,35.109,35.109,0,0,1,.243-7.626,8.442,8.442,0,0,1,3.036-5.441c2.25-1.737,5.469-2.166,8.5-2.239a19.226,19.226,0,0,1,7.491,1.007c2.325.918,4.313,2.732,4.654,4.913" transform="translate(-2171.319 -2085.124)" fill="#1a2e35"/>
              </g>
              <g id="Group_2582" data-name="Group 2582" transform="translate(17.685 0.973)">
                <path id="Path_1534" data-name="Path 1534" d="M2220.9,2111.8a47.692,47.692,0,0,0,.841-5.625c.248-4.343-1.006-20.372-15.98-19.082l3.6,4.6s-2.959,9.716,3.342,16.417c0,0,.357,3.921,4.744,8.445,0,0,2.54-.077,3.45-4.753" transform="translate(-2205.756 -2087.019)" fill="#1a2e35"/>
              </g>
              <g id="Group_2583" data-name="Group 2583" transform="translate(24.037 21.238)">
                <path id="Path_1535" data-name="Path 1535" d="M2218.54,2126.574a5.021,5.021,0,0,1,2.708.2,3.5,3.5,0,0,1,1.961,1.822,3.662,3.662,0,0,1-.008,2.69,6.2,6.2,0,0,1-1.559,2.246A4.211,4.211,0,0,1,2220,2134.6a2.005,2.005,0,0,1-1.871-.312" transform="translate(-2218.125 -2126.479)" fill="#ffbf9d"/>
              </g>
              <g id="Group_2585" data-name="Group 2585" transform="translate(24.87 22.498)">
                <g id="Group_2584" data-name="Group 2584">
                  <path id="Path_1536" data-name="Path 1536" d="M2219.764,2133.229c-.1.032.281.581,1.107.369a1.769,1.769,0,0,0,1.027-.876,4.012,4.012,0,0,0,.466-1.488,2.354,2.354,0,0,0-.363-1.589,1.564,1.564,0,0,0-1.174-.712c-.846-.029-1.116.554-1.019.573.066.069.4-.229.951-.089a1.517,1.517,0,0,1,.918,1.749c-.111.925-.477,1.768-.973,1.974C2220.188,2133.394,2219.82,2133.155,2219.764,2133.229Z" transform="translate(-2219.747 -2128.932)" fill="#ff9a6c"/>
                </g>
              </g>
            </g>
          </g>
        </g>
        <g id="Group_2589" data-name="Group 2589" transform="translate(5.69 68.795)">
          <path id="Path_1537" data-name="Path 1537" d="M2167.958,2257.723v-3.846h-27.066l-7.947-34.792-40.506.333,9.823,38.306Z" transform="translate(-2092.439 -2219.084)" fill="#1a2e35"/>
          <path id="Path_1538" data-name="Path 1538" d="M2129.6,2252.7c.6,1.843,2.228,2.965,3.639,2.506s2.07-2.324,1.471-4.167-2.228-2.963-3.639-2.5S2129,2250.86,2129.6,2252.7Z" transform="translate(-2110.409 -2233.362)" fill="#fafafa"/>
        </g>
        <path id="Path_1539" data-name="Path 1539" d="M2158.685,2282.65a25.135,25.135,0,0,1-1.692-4.051,2.383,2.383,0,0,1-.158-1.028.871.871,0,0,1,.622-.763c.631-.128,1.023.638,1.269,1.232a7.677,7.677,0,0,0,5.31,4.46l1.64-.047.007-.067,35.4-3.157-1.688-7.023,18.742-1.393,1.708,6.916a14.249,14.249,0,0,1-14.707,15.754l-40.626.01c-12.921.845-15.351-10.577-15.351-10.577Z" transform="translate(-2114.344 -2175.454)" fill="#ffbf9d"/>
      </g>
    </g>
    <path id="Path_1540" data-name="Path 1540" d="M2060.887,2514.885l-16,9.875,5.869,14.122a51.4,51.4,0,0,0,12.566-18.133Z" transform="translate(-332.391 -339.559)" fill="#ffbe82"/>
    <g id="Group_2592" data-name="Group 2592" transform="translate(1705.815 2143.954)">
      <path id="Path_1541" data-name="Path 1541" d="M2039.173,2453.807a9.889,9.889,0,0,0-1.439.341,6.957,6.957,0,0,0-3.151,2.389,11.176,11.176,0,0,0-2,5.535c-.142,1.119-.2,2.306-.244,3.54s-.072,2.511-.087,3.819a130.547,130.547,0,0,0,.6,13.391c.16,1.71.33,3.089.436,4.044.051.443.093.807.126,1.1a.194.194,0,1,1-.073.011c-.051-.289-.116-.651-.194-1.09-.149-.95-.36-2.327-.552-4.036a111.174,111.174,0,0,1-.712-13.421c.015-1.312.039-2.595.095-3.832s.115-2.433.268-3.569a11.247,11.247,0,0,1,2.132-5.651,6.887,6.887,0,0,1,3.31-2.365A3.83,3.83,0,0,1,2039.173,2453.807Z" transform="translate(-2031.881 -2453.798)" fill="#1a2e35"/>
    </g>
    <g id="Group_2593" data-name="Group 2593" transform="translate(1709.654 2172.25)">
      <path id="Path_1542" data-name="Path 1542" d="M2062.139,2508.9a5.578,5.578,0,0,1-.829.618c-.547.38-1.349.913-2.347,1.558-2,1.291-4.794,3.017-7.943,4.823s-6.055,3.345-8.179,4.416c-1.062.536-1.927.958-2.53,1.238a5.727,5.727,0,0,1-.953.4,5.512,5.512,0,0,1,.888-.53l2.475-1.34c2.091-1.128,4.971-2.7,8.116-4.5s5.958-3.49,7.988-4.725l2.408-1.458A5.518,5.518,0,0,1,2062.139,2508.9Z" transform="translate(-2039.357 -2508.895)" fill="#1a2e35"/>
    </g>
    <path id="Path_1543" data-name="Path 1543" d="M2032.049,2487.048l7.962,26.19-2.963,1.541-2.921-7.407S2031.125,2491.812,2032.049,2487.048Z" transform="translate(-326.061 -326.018)" opacity="0.2"/>
    <g id="Group_2619" data-name="Group 2619" transform="translate(1606.071 2083.361)">
      <g id="Group_2618" data-name="Group 2618" transform="translate(0)">
        <path id="Path_1544" data-name="Path 1544" d="M1992.708,2482c-2.069-4.95-9.166-21.3-15.108-27.409-8.895-9.148-24.551-7.917-24.551-7.917l-20.337.722a47.723,47.723,0,0,0-14.98,4.636l-.5.155.007.1c-5.693,3.091-13.754,10.5-21.432,17.7l9.188,8.528,10.171,9.028a.265.265,0,0,0-.017.181c.106.547-1.653,11.471-3.209,20.909a51.3,51.3,0,0,0,54.015,5.5l.761-8.724c.693-7.911,1.221-17.706,1.221-17.706l2.92,7.407,21.218-11.032Q1992.413,2483.05,1992.708,2482Z" transform="translate(-1865.943 -2389.714)" fill="#f47458"/>
        <g id="Group_2594" data-name="Group 2594" transform="translate(66.12 56.191)">
          <path id="Path_1545" data-name="Path 1545" d="M1987.957,2445.226a1.446,1.446,0,0,1,.089.363,7.688,7.688,0,0,1,.135,1.065,10.636,10.636,0,0,1-.525,3.906,11.106,11.106,0,0,1-3.215,4.867,11.157,11.157,0,0,1-13.474.634,11.125,11.125,0,0,1-3.663-4.541,10.65,10.65,0,0,1-.894-3.838,7.744,7.744,0,0,1,.033-1.073,1.416,1.416,0,0,1,.054-.369c.042,0-.015.515.056,1.434a11.178,11.178,0,0,0,.988,3.74,11.047,11.047,0,0,0,3.621,4.372,10.931,10.931,0,0,0,13.058-.614,11.03,11.03,0,0,0,3.191-4.694,11.179,11.179,0,0,0,.628-3.818C1988.021,2445.738,1987.915,2445.232,1987.957,2445.226Z" transform="translate(-1966.406 -2445.226)" fill="#1a2e35"/>
        </g>
        <g id="Group_2595" data-name="Group 2595" transform="translate(49.315 59.281)">
          <path id="Path_1546" data-name="Path 1546" d="M1943,2451.243a1.653,1.653,0,0,1-.087.4l-.317,1.112-1.192,4.084c-1,3.449-2.314,8.233-3.6,13.556s-2.3,10.185-2.982,13.709c-.332,1.727-.6,3.141-.8,4.177-.092.46-.167.835-.227,1.135a1.7,1.7,0,0,1-.1.392,1.643,1.643,0,0,1,.03-.4l.159-1.147c.143-.994.376-2.43.688-4.2.623-3.54,1.6-8.413,2.881-13.748s2.648-10.111,3.71-13.545c.531-1.717.978-3.1,1.3-4.052l.382-1.092A1.7,1.7,0,0,1,1943,2451.243Z" transform="translate(-1933.683 -2451.243)" fill="#1a2e35"/>
        </g>
        <g id="Group_2596" data-name="Group 2596" transform="translate(32.645 77.617)">
          <path id="Path_1547" data-name="Path 1547" d="M1918.854,2501.313c-.064.078-4.063-3.073-8.931-7.04s-8.764-7.246-8.7-7.324,4.062,3.073,8.931,7.04S1918.918,2501.234,1918.854,2501.313Z" transform="translate(-1901.224 -2486.948)" fill="#1a2e35"/>
        </g>
        <g id="Group_2597" data-name="Group 2597" transform="translate(58.505 57.55)" opacity="0.2">
          <path id="Path_1548" data-name="Path 1548" d="M1952.568,2449.619c-4.292,2.264,6.464,7.707,11.322,7.56l-3.528-9.307S1954.008,2448.859,1952.568,2449.619Z" transform="translate(-1951.578 -2447.872)"/>
        </g>
        <path id="Path_1549" data-name="Path 1549" d="M1982.7,2515.961l-25.484.095,1.676-9.38,25.691-.5Z" transform="translate(-1895.816 -2418.684)" fill="#fff" opacity="0.2"/>
        <path id="Path_1550" data-name="Path 1550" d="M1970.242,2361.782a1.884,1.884,0,0,0,2.7,2.176c1.229-.654,1.354-2.37,1.083-3.737s-.766-2.819-.216-4.1a9.323,9.323,0,0,1,2.09-2.39,6.008,6.008,0,0,0,1.569-5.13,5.051,5.051,0,0,0-3.551-3.905c-1.834-.474-4.071.129-5.455-1.165-1-.938-1.094-2.505-1.878-3.633-1.217-1.751-3.722-1.984-5.829-1.654s-4.243,1.048-6.322.574c-1.736-.4-3.177-1.576-4.811-2.284a9.332,9.332,0,0,0-11.9,13.045,5.963,5.963,0,0,0,2.95,2.808" transform="translate(-1885.798 -2335.808)" fill="#1a2e35"/>
        <g id="Group_2598" data-name="Group 2598" transform="translate(55.881 9.676)">
          <path id="Path_1551" data-name="Path 1551" d="M1967.643,2413.736h0a10.447,10.447,0,0,1-10.493-9.879c-.23-4.615-.423-9.059-.423-9.059s-8.569-.621-9.359-9-.9-27.749-.9-27.749h0a29.726,29.726,0,0,1,29.847,1.3l.815.523.99,43.35A10.447,10.447,0,0,1,1967.643,2413.736Z" transform="translate(-1946.469 -2354.649)" fill="#ffbe82"/>
        </g>
        <g id="Group_2602" data-name="Group 2602" transform="translate(69.771 25.072)">
          <g id="Group_2599" data-name="Group 2599" transform="translate(1.522 0.828)">
            <path id="Path_1552" data-name="Path 1552" d="M1977.324,2386.306a1.22,1.22,0,0,0-.782,1.544,1.236,1.236,0,0,0,1.558.775,1.219,1.219,0,0,0,.782-1.545A1.235,1.235,0,0,0,1977.324,2386.306Z" transform="translate(-1976.48 -2386.243)" fill="#1a2e35"/>
          </g>
          <g id="Group_2601" data-name="Group 2601">
            <g id="Group_2600" data-name="Group 2600">
              <path id="Path_1553" data-name="Path 1553" d="M1973.534,2385.957c.142.138.936-.546,2.1-.621,1.166-.092,2.05.472,2.17.316.059-.07-.089-.324-.475-.581a2.9,2.9,0,0,0-3.409.243C1973.576,2385.624,1973.466,2385.9,1973.534,2385.957Z" transform="translate(-1973.515 -2384.631)" fill="#1a2e35"/>
            </g>
          </g>
        </g>
        <g id="Group_2606" data-name="Group 2606" transform="translate(56.826 25.098)">
          <g id="Group_2603" data-name="Group 2603" transform="translate(1.679 0.802)">
            <path id="Path_1554" data-name="Path 1554" d="M1952.422,2386.306a1.22,1.22,0,0,0-.782,1.544,1.236,1.236,0,0,0,1.558.775,1.22,1.22,0,0,0,.782-1.545A1.235,1.235,0,0,0,1952.422,2386.306Z" transform="translate(-1951.577 -2386.243)" fill="#1a2e35"/>
          </g>
          <g id="Group_2605" data-name="Group 2605">
            <g id="Group_2604" data-name="Group 2604">
              <path id="Path_1555" data-name="Path 1555" d="M1948.327,2386.007c.142.137.936-.547,2.1-.622,1.166-.092,2.05.473,2.17.316.059-.069-.089-.324-.476-.58a2.9,2.9,0,0,0-3.409.243C1948.369,2385.673,1948.26,2385.946,1948.327,2386.007Z" transform="translate(-1948.308 -2384.68)" fill="#1a2e35"/>
            </g>
          </g>
        </g>
        <g id="Group_2608" data-name="Group 2608" transform="translate(62.547 25.387)">
          <g id="Group_2607" data-name="Group 2607">
            <path id="Path_1556" data-name="Path 1556" d="M1962.548,2395.338a5.761,5.761,0,0,0-1.917-.244c-.308-.008-.552-.058-.587-.218a1.636,1.636,0,0,1,.147-.883l.729-2.421c1-3.446,1.667-6.28,1.49-6.33s-1.13,2.7-2.13,6.148c-.234.841-.458,1.643-.679,2.435a1.92,1.92,0,0,0-.064,1.269.8.8,0,0,0,.564.44,1.945,1.945,0,0,0,.526.025A5.687,5.687,0,0,0,1962.548,2395.338Z" transform="translate(-1959.448 -2385.242)" fill="#1a2e35"/>
          </g>
        </g>
        <g id="Group_2609" data-name="Group 2609" transform="translate(63.957 36.452)">
          <path id="Path_1557" data-name="Path 1557" d="M1967.773,2406.79a28.71,28.71,0,0,1-5.58,2.107,3.245,3.245,0,0,0,3.9.963C1968.555,2408.738,1967.773,2406.79,1967.773,2406.79Z" transform="translate(-1962.194 -2406.79)" fill="#fff"/>
        </g>
        <g id="Group_2610" data-name="Group 2610" transform="translate(66.115 45.707)">
          <path id="Path_1558" data-name="Path 1558" d="M1966.4,2428.808a19.862,19.862,0,0,0,10.776-4s-2.114,6.245-10.618,6.171Z" transform="translate(-1966.398 -2424.812)" fill="#b66955"/>
        </g>
        <g id="Group_2614" data-name="Group 2614" transform="translate(86.749 22.068)">
          <g id="Group_2611" data-name="Group 2611">
            <path id="Path_1559" data-name="Path 1559" d="M2006.576,2380.081a1.273,1.273,0,0,1,1.2-1.294c1.58-.075,4.177.5,4.5,4.816.467,6.168-5.557,4.745-5.581,4.568C2006.678,2388.033,2006.606,2382.481,2006.576,2380.081Z" transform="translate(-2006.576 -2378.78)" fill="#ffbe82"/>
          </g>
          <g id="Group_2613" data-name="Group 2613" transform="translate(1.442 1.966)">
            <g id="Group_2612" data-name="Group 2612">
              <path id="Path_1560" data-name="Path 1560" d="M2009.389,2387.579c.026-.022.114.067.3.136a1.1,1.1,0,0,0,.812-.043,2.658,2.658,0,0,0,1.06-2.479,3.525,3.525,0,0,0-.42-1.516,1.252,1.252,0,0,0-.877-.764.554.554,0,0,0-.618.342c-.07.179-.021.3-.054.313-.016.017-.142-.094-.11-.352a.684.684,0,0,1,.215-.405.827.827,0,0,1,.588-.2,1.528,1.528,0,0,1,1.2.872,3.633,3.633,0,0,1,.506,1.691,2.791,2.791,0,0,1-1.38,2.782,1.168,1.168,0,0,1-1-.089C2009.412,2387.727,2009.368,2387.591,2009.389,2387.579Z" transform="translate(-2009.385 -2382.608)" fill="#b66955"/>
            </g>
          </g>
        </g>
        <g id="Group_2615" data-name="Group 2615" transform="translate(69.194 21.52)">
          <path id="Path_1561" data-name="Path 1561" d="M1977.145,2379.153c-.263.34-1.183.18-2.377.13-1.192-.1-2.125-.05-2.342-.419-.247-.383.906-1.265,2.444-1.139C1976.41,2377.789,1977.44,2378.8,1977.145,2379.153Z" transform="translate(-1972.393 -2377.713)" fill="#1a2e35"/>
        </g>
        <g id="Group_2616" data-name="Group 2616" transform="translate(56.894 21.892)">
          <path id="Path_1562" data-name="Path 1562" d="M1952.031,2379.292c-.088.427-.862.631-1.734.713s-1.671,0-1.833-.4.569-1.056,1.7-1.154S1952.123,2378.876,1952.031,2379.292Z" transform="translate(-1948.442 -2378.438)" fill="#1a2e35"/>
        </g>
        <path id="Path_1563" data-name="Path 1563" d="M1943.829,2359.224s5.083,2.461,11.7-.841c4.341-2.167,9.4-3.225,10.517-2.352s1.351,5.345,5.651,6.651c0,0-.3,8.534,3.108,8.23s1.276-13.522,1.276-13.522l-8.324-4.065-9.083-1.716-8.559,1.207-6.623,1.813Z" transform="translate(-1889.138 -2343.495)" fill="#1a2e35"/>
        <g id="Group_2617" data-name="Group 2617" transform="translate(6.014 29.451)">
          <path id="Path_1564" data-name="Path 1564" d="M1867.634,2394.89c.3.483,10.092,34.407,10.092,34.407l-19.426,2.649-8.935-27.682Z" transform="translate(-1849.365 -2394)" fill="#375a64"/>
          <path id="Path_1565" data-name="Path 1565" d="M1894.833,2428.454l1.745-.929-10.165-34.37-1.881,1Z" transform="translate(-1866.472 -2393.156)" fill="#1a2e35"/>
          <path id="Path_1566" data-name="Path 1566" d="M1867.549,2411.813a.824.824,0,1,1-.978-.632A.824.824,0,0,1,1867.549,2411.813Z" transform="translate(-1857.418 -2401.915)" fill="#1a2e35"/>
        </g>
        <path id="Path_1567" data-name="Path 1567" d="M1868.365,2457.995l-12.744,8.3-2.345-29.7h0l.2-1.484,8.633-3.294-2.481-6.357a5.479,5.479,0,0,0-7.557-2.809c-.921.468-1.889.961-2.764,1.409a7.785,7.785,0,0,0-4,4.925c-.981,3.68-1.854,7.657-1.763,7.311h0l-5.46,38.232s-2.6,11.023,4.945,16.267c5.7,3.962,15.294-.245,20.388-3.124l22.072-13.3Z" transform="translate(-1837.655 -2377.762)" fill="#ffbe82"/>
      </g>
    </g>
    <g id="Group_2655" data-name="Group 2655" transform="translate(1566.984 1917.601)">
      <g id="Group_2654" data-name="Group 2654" transform="translate(0 0)">
        <path id="Path_1568" data-name="Path 1568" d="M1900.817,2175.987l-8.647-13.153-14.573,9.156,13.212,20.374S1898.078,2184.477,1900.817,2175.987Z" transform="translate(-1817.998 -2085.904)" fill="#ad694b"/>
        <g id="Group_2644" data-name="Group 2644" transform="translate(23.578)">
          <path id="Path_1569" data-name="Path 1569" d="M1813.335,2037.335c.712-.784-.254-2.012-1.25-2.374s-2.239-.529-2.715-1.476c-.578-1.15.444-2.435.627-3.708.2-1.363-.589-2.657-.822-4.014a5.064,5.064,0,0,1,6.652-5.64,6.592,6.592,0,0,1,11.691-3.908,18.576,18.576,0,0,1,4.176-2.625,6.27,6.27,0,0,1,4.814-.138,3.828,3.828,0,0,1,2.337,3.95,4.17,4.17,0,0,1,4.868-.864,6.263,6.263,0,0,1,3.158,4.076,6.648,6.648,0,0,1-1.822,6.79c-1.906,1.582-5.169,1.435-6.581-.6" transform="translate(-1808.258 -2013.032)" fill="#1a2e35"/>
          <g id="Group_2643" data-name="Group 2643" transform="translate(0 8.039)">
            <g id="Group_2642" data-name="Group 2642" transform="translate(0 1.461)">
              <g id="Group_2639" data-name="Group 2639">
                <g id="Group_2634" data-name="Group 2634" transform="translate(4.624)">
                  <g id="Group_2633" data-name="Group 2633">
                    <g id="Group_2620" data-name="Group 2620">
                      <path id="Path_1570" data-name="Path 1570" d="M1826.263,2086.813h0a9.775,9.775,0,0,0,9.816-9.244c.216-4.318.4-8.476.4-8.476s8.017-.581,8.756-8.418.841-25.962.841-25.962h0a27.814,27.814,0,0,0-27.926,1.213l-.763.49-.926,40.558A9.776,9.776,0,0,0,1826.263,2086.813Z" transform="translate(-1816.459 -2031.53)" fill="#e68c64"/>
                    </g>
                    <g id="Group_2624" data-name="Group 2624" transform="translate(12.593 14.405)">
                      <g id="Group_2621" data-name="Group 2621" transform="translate(0.295 0.775)">
                        <path id="Path_1571" data-name="Path 1571" d="M1843.072,2061.148a1.141,1.141,0,0,1,.731,1.445,1.156,1.156,0,0,1-1.458.725,1.141,1.141,0,0,1-.732-1.444A1.155,1.155,0,0,1,1843.072,2061.148Z" transform="translate(-1841.556 -2061.089)" fill="#1a2e35"/>
                      </g>
                      <g id="Group_2623" data-name="Group 2623">
                        <g id="Group_2622" data-name="Group 2622">
                          <path id="Path_1572" data-name="Path 1572" d="M1844.989,2060.821c-.133.129-.875-.512-1.967-.581-1.091-.085-1.917.442-2.03.3-.055-.065.083-.3.445-.543a2.715,2.715,0,0,1,3.19.228C1844.95,2060.509,1845.053,2060.764,1844.989,2060.821Z" transform="translate(-1840.981 -2059.58)" fill="#1a2e35"/>
                        </g>
                      </g>
                    </g>
                    <g id="Group_2628" data-name="Group 2628" transform="translate(24.704 14.429)">
                      <g id="Group_2625" data-name="Group 2625" transform="translate(0.149 0.751)">
                        <path id="Path_1573" data-name="Path 1573" d="M1866.37,2061.148a1.141,1.141,0,0,1,.731,1.445,1.155,1.155,0,0,1-1.457.725,1.141,1.141,0,0,1-.732-1.444A1.155,1.155,0,0,1,1866.37,2061.148Z" transform="translate(-1864.853 -2061.089)" fill="#1a2e35"/>
                      </g>
                      <g id="Group_2627" data-name="Group 2627">
                        <g id="Group_2626" data-name="Group 2626">
                          <path id="Path_1574" data-name="Path 1574" d="M1868.573,2060.869c-.133.128-.875-.511-1.967-.582-1.091-.086-1.917.442-2.03.3-.055-.065.083-.3.445-.543a2.716,2.716,0,0,1,3.19.228C1868.534,2060.556,1868.637,2060.811,1868.573,2060.869Z" transform="translate(-1864.564 -2059.627)" fill="#1a2e35"/>
                        </g>
                      </g>
                    </g>
                    <g id="Group_2630" data-name="Group 2630" transform="translate(20.478 14.699)">
                      <g id="Group_2629" data-name="Group 2629">
                        <path id="Path_1575" data-name="Path 1575" d="M1856.335,2069.6a5.386,5.386,0,0,1,1.793-.228c.288-.007.517-.053.55-.2a1.533,1.533,0,0,0-.138-.826l-.683-2.265c-.935-3.223-1.559-5.875-1.394-5.921s1.057,2.526,1.992,5.751l.635,2.279a1.79,1.79,0,0,1,.059,1.187.745.745,0,0,1-.528.412,1.867,1.867,0,0,1-.492.023A5.338,5.338,0,0,1,1856.335,2069.6Z" transform="translate(-1856.335 -2060.153)" fill="#1a2e35"/>
                      </g>
                    </g>
                    <g id="Group_2631" data-name="Group 2631" transform="translate(16.728 25.052)">
                      <path id="Path_1576" data-name="Path 1576" d="M1849.143,2080.313a26.808,26.808,0,0,0,5.221,1.971,3.036,3.036,0,0,1-3.653.9C1848.413,2082.135,1849.143,2080.313,1849.143,2080.313Z" transform="translate(-1849.033 -2080.313)" fill="#fff"/>
                    </g>
                    <g id="Group_2632" data-name="Group 2632" transform="translate(9.957 33.711)" opacity="0.9">
                      <path id="Path_1577" data-name="Path 1577" d="M1845.93,2100.913a18.582,18.582,0,0,1-10.082-3.739s1.978,5.843,9.934,5.774Z" transform="translate(-1835.848 -2097.174)" fill="#a67c52"/>
                    </g>
                  </g>
                </g>
                <g id="Group_2638" data-name="Group 2638" transform="translate(0 15.18)">
                  <g id="Group_2635" data-name="Group 2635">
                    <path id="Path_1578" data-name="Path 1578" d="M1812.813,2062.306a1.189,1.189,0,0,0-1.121-1.21c-1.478-.07-3.908.465-4.214,4.5-.437,5.772,5.2,4.439,5.221,4.274C1812.718,2069.746,1812.785,2064.551,1812.813,2062.306Z" transform="translate(-1807.455 -2061.09)" fill="#e68c64"/>
                  </g>
                  <g id="Group_2637" data-name="Group 2637" transform="translate(1.559 1.839)">
                    <g id="Group_2636" data-name="Group 2636">
                      <path id="Path_1579" data-name="Path 1579" d="M1812.936,2069.321c-.024-.021-.107.063-.284.128a1.023,1.023,0,0,1-.759-.041,2.486,2.486,0,0,1-.993-2.319,3.305,3.305,0,0,1,.393-1.419,1.172,1.172,0,0,1,.822-.714.52.52,0,0,1,.578.32c.066.167.02.28.05.292.015.016.132-.087.1-.329a.639.639,0,0,0-.2-.378.767.767,0,0,0-.55-.189,1.427,1.427,0,0,0-1.127.815,3.4,3.4,0,0,0-.474,1.583,2.612,2.612,0,0,0,1.292,2.6,1.1,1.1,0,0,0,.939-.083C1812.916,2069.46,1812.956,2069.333,1812.936,2069.321Z" transform="translate(-1810.49 -2064.671)" fill="#a67c52"/>
                    </g>
                  </g>
                </g>
              </g>
              <g id="Group_2640" data-name="Group 2640" transform="translate(17.29 11.082)">
                <path id="Path_1580" data-name="Path 1580" d="M1841.169,2054.457c.247.317,1.107.168,2.224.121,1.115-.089,1.988-.047,2.19-.392.231-.359-.848-1.183-2.286-1.066C1841.856,2053.179,1840.893,2054.128,1841.169,2054.457Z" transform="translate(-1841.122 -2053.109)" fill="#1a2e35"/>
              </g>
              <g id="Group_2641" data-name="Group 2641" transform="translate(29.926 11.43)">
                <path id="Path_1581" data-name="Path 1581" d="M1865.735,2054.586c.082.4.806.59,1.622.667s1.564,0,1.715-.375-.532-.988-1.586-1.078S1865.649,2054.2,1865.735,2054.586Z" transform="translate(-1865.729 -2053.788)" fill="#1a2e35"/>
              </g>
            </g>
            <path id="Path_1582" data-name="Path 1582" d="M1847.133,2035.811s-4.756,2.3-10.945-.787c-4.062-2.028-8.8-3.017-9.84-2.2s-1.264,5-5.287,6.223c0,0,.277,7.984-2.907,7.7s-1.194-12.651-1.194-12.651l7.788-3.8,8.5-1.606,8.008,1.129,6.2,1.7Z" transform="translate(-1811.78 -2028.685)" fill="#1a2e35"/>
          </g>
        </g>
        <path id="Path_1583" data-name="Path 1583" d="M1772.51,2125.276c8.322-8.559,22.97-7.625,22.97-7.625l19.027.677a44.647,44.647,0,0,1,14.016,4.336l.467.145-.006.1c5.326,2.893,12.868,9.829,20.052,16.561l-8.6,7.979-9.516,8.447a.247.247,0,0,1,.017.169c-.1.511,1.546,10.732,3,19.562a48,48,0,0,1-50.537,5.144l-.712-8.164c-.649-7.4-1.143-16.564-1.143-16.564" transform="translate(-1766.878 -2063.91)" fill="#f7cc7f"/>
        <g id="Group_2645" data-name="Group 2645" transform="translate(55.24 55.911)">
          <path id="Path_1584" data-name="Path 1584" d="M1869.111,2121.9a1.467,1.467,0,0,1,.149.349l.36,1.022c.307.889.727,2.183,1.224,3.79,1,3.212,2.268,7.684,3.475,12.673s2.112,9.551,2.692,12.864c.291,1.656.508,3,.64,3.93.059.432.107.787.146,1.073a.19.19,0,1,1-.073.012l-.214-1.061c-.189-.975-.444-2.3-.755-3.907-.645-3.3-1.592-7.841-2.795-12.825s-2.435-9.456-3.366-12.684l-1.111-3.821c-.119-.419-.216-.764-.294-1.042A1.487,1.487,0,0,1,1869.111,2121.9Z" transform="translate(-1869.108 -2121.904)" fill="#1a2e35"/>
        </g>
        <g id="Group_2646" data-name="Group 2646" transform="translate(63.059 73.065)">
          <path id="Path_1585" data-name="Path 1585" d="M1884.336,2168.748c-.063-.079,3.577-3.151,8.132-6.861s8.3-6.656,8.363-6.578-3.576,3.15-8.132,6.862S1884.4,2168.827,1884.336,2168.748Z" transform="translate(-1884.335 -2155.308)" fill="#1a2e35"/>
        </g>
        <path id="Path_1586" data-name="Path 1586" d="M1786.845,2155.4l-7.449,24.5,2.772,1.442,2.733-6.931S1787.709,2159.86,1786.845,2155.4Z" transform="translate(-1770.228 -2082.289)" opacity="0.2"/>
        <g id="Group_2647" data-name="Group 2647" transform="translate(43.842 54.291)" opacity="0.2">
          <path id="Path_1587" data-name="Path 1587" d="M1857.508,2120.384c4.015,2.117-6.048,7.21-10.593,7.073l3.3-8.708S1856.161,2119.673,1857.508,2120.384Z" transform="translate(-1846.915 -2118.749)"/>
        </g>
        <path id="Path_1588" data-name="Path 1588" d="M1814.907,2112.6v-6.489s12.674,3.262,13.134,10.844c0,0,1.613-8.382,8.142-8.784l.923,11.791-7.6,6.611h-7.7l-6.1-5.262-.8-8.187" transform="translate(-1787.502 -2058.312)" fill="#f7cc7f"/>
        <g id="Group_2648" data-name="Group 2648" transform="translate(40.459 59.793)">
          <path id="Path_1589" data-name="Path 1589" d="M1843.259,2164.689a1.327,1.327,0,0,1-.021-.362c0-.278.008-.619.013-1.033.024-.9.043-2.194.052-3.8.018-3.206-.078-7.634-.48-12.507s-1.044-9.258-1.59-12.416c-.272-1.579-.506-2.855-.677-3.735l-.183-1.017a1.342,1.342,0,0,1-.04-.36,1.313,1.313,0,0,1,.112.344l.251,1c.214.872.487,2.143.792,3.719a118.265,118.265,0,0,1,2.074,24.972c-.04,1.6-.1,2.9-.167,3.8-.033.413-.06.753-.082,1.031A1.334,1.334,0,0,1,1843.259,2164.689Z" transform="translate(-1840.327 -2129.463)" fill="#1a2e35"/>
        </g>
        <g id="Group_2649" data-name="Group 2649" transform="translate(26.964 53.065)">
          <path id="Path_1590" data-name="Path 1590" d="M1827.04,2119.761a1.439,1.439,0,0,0-.756.058,1.611,1.611,0,0,0-.7.544,5.5,5.5,0,0,0-.591,1.078,36.249,36.249,0,0,0-2.425,7.013l-.056.241-.212-.128c-.757-.457-1.533-.952-2.314-1.482a46.764,46.764,0,0,1-4.107-3.118,5.151,5.151,0,0,1-1.394-1.818,5.757,5.757,0,0,1-.428-1.946,11.463,11.463,0,0,1,.269-2.834,4.918,4.918,0,0,1,.263-1.006,6.5,6.5,0,0,1-.123,1.03,13.136,13.136,0,0,0-.151,2.792,5.63,5.63,0,0,0,.448,1.839,4.886,4.886,0,0,0,1.339,1.689c1.2,1,2.59,2.047,4.091,3.067.775.526,1.545,1.02,2.294,1.479l-.268.112a32.391,32.391,0,0,1,2.565-7.032,5.335,5.335,0,0,1,.659-1.091,1.709,1.709,0,0,1,.8-.549A.873.873,0,0,1,1827.04,2119.761Z" transform="translate(-1814.049 -2116.362)" fill="#1a2e35"/>
        </g>
        <g id="Group_2650" data-name="Group 2650" transform="translate(41.509 49.862)">
          <path id="Path_1591" data-name="Path 1591" d="M1849.543,2110.126a5.512,5.512,0,0,1,.1,1.014c.049.72.113,1.649.19,2.762.092,1.165.23,2.548.467,4.071a6.8,6.8,0,0,1,.15,2.477,4.246,4.246,0,0,1-1.654,2.108,18.581,18.581,0,0,0-2.793,2.124l-.28.314-.028-.419a15.106,15.106,0,0,0-1.888-6.328c-.812-1.446-1.483-2.183-1.437-2.22a2.9,2.9,0,0,1,.49.509,12.638,12.638,0,0,1,1.139,1.6,14.53,14.53,0,0,1,2.048,6.416l-.307-.1a17.878,17.878,0,0,1,2.836-2.183,3.962,3.962,0,0,0,1.527-1.9,6.73,6.73,0,0,0-.137-2.338c-.22-1.538-.332-2.934-.391-4.1s-.073-2.12-.074-2.775A5.275,5.275,0,0,1,1849.543,2110.126Z" transform="translate(-1842.372 -2110.126)" fill="#1a2e35"/>
        </g>
        <g id="Group_2652" data-name="Group 2652" transform="translate(4.538 51.49)">
          <path id="Path_1592" data-name="Path 1592" d="M1917.6,2113.3c-.515.607-19.173,25.556-19.173,25.556l2.627,1.488,19.147-24.631Z" transform="translate(-1832.672 -2113.295)" fill="#1a2e35"/>
          <path id="Path_1593" data-name="Path 1593" d="M1780.361,2144.167s19.628,28.254,20.811,28.809c2.33,1.094,29.182-22.112,31.742-24.331.353-.471,1.082-1.466,2.511-3.445,0,0,2.119-9.7,4.38-8.95s-1.239,4.926.234,8.609,8.216-5.1,8.486-5.891l1.739-2.272s1.824,5.17,1.7,7.329c-.4,6.917-6.939,15.143-6.939,15.143s-29.388,36.4-49.518,37.533c-5.8.325-16.1-16.125-22.99-28.461a16.881,16.881,0,0,1,4.81-21.861Z" transform="translate(-1770.381 -2124.442)" fill="#e68c64"/>
          <g id="Group_2651" data-name="Group 2651" transform="translate(78.277 15.7)">
            <path id="Path_1594" data-name="Path 1594" d="M1922.808,2148.98c-.054-.033.583-1.139,1.278-2.549s1.192-2.585,1.252-2.563a17.426,17.426,0,0,1-2.53,5.112Z" transform="translate(-1922.805 -2143.867)" fill="#ff9a6c"/>
          </g>
        </g>
        <path id="Path_1595" data-name="Path 1595" d="M1772.74,2124.855s-21.068,7.49-5.4,42.918l24.321-14.679-3.46-8.285Z" transform="translate(-1761.543 -2067.428)" fill="#f7cc7f"/>
        <g id="Group_2653" data-name="Group 2653" transform="translate(5.792 58.018)">
          <path id="Path_1596" data-name="Path 1596" d="M1776.612,2126.029a.6.6,0,0,1,.167-.015l.492-.006a8.669,8.669,0,0,1,1.875.249,10.355,10.355,0,0,1,2.755,1.17,14.95,14.95,0,0,1,3.061,2.519,36.862,36.862,0,0,1,5.711,8.547c1.78,3.444,3.441,7.366,5.147,11.489.511,1.235,1.014,2.453,1.491,3.6l.063.151-.144.079c-7.036,3.837-13.162,7.433-17.49,10.127-2.166,1.344-3.89,2.451-5.072,3.221l-1.361.882a3.564,3.564,0,0,1-.485.289,3.463,3.463,0,0,1,.446-.345c.3-.216.743-.537,1.326-.936,1.16-.8,2.865-1.944,5.016-3.317,4.3-2.752,10.409-6.391,17.446-10.241l-.081.23-1.494-3.6c-1.705-4.121-3.354-8.038-5.109-11.475a37.42,37.42,0,0,0-5.6-8.524,15.042,15.042,0,0,0-2.979-2.522,10.509,10.509,0,0,0-2.685-1.206A14.073,14.073,0,0,0,1776.612,2126.029Z" transform="translate(-1772.821 -2126.008)" fill="#1a2e35"/>
        </g>
      </g>
    </g>
    <g id="Group_2663" data-name="Group 2663" transform="translate(1740.949 2207.203)" opacity="0.6">
      <g id="Group_2662" data-name="Group 2662">
        <g id="Group_2661" data-name="Group 2661">
          <g id="Group_2660" data-name="Group 2660">
            <g id="Group_2659" data-name="Group 2659">
              <path id="Path_1597" data-name="Path 1597" d="M2129.984,2617.433a2.382,2.382,0,1,1-2.372-2.395A2.382,2.382,0,0,1,2129.984,2617.433Z" transform="translate(-2112.419 -2595.482)" fill="#8c5096"/>
              <g id="Group_2656" data-name="Group 2656" transform="translate(8.155 14.112)">
                <path id="Path_1598" data-name="Path 1598" d="M2118.439,2609.213a6.6,6.6,0,0,1,9.554-.125,1.341,1.341,0,0,0,1.9-1.886,9.311,9.311,0,0,0-13.343.108c-1.189,1.248.693,3.156,1.886,1.9Z" transform="translate(-2116.174 -2604.439)" fill="#8c5096"/>
              </g>
              <g id="Group_2657" data-name="Group 2657">
                <path id="Path_1599" data-name="Path 1599" d="M2102.621,2584.755a19.513,19.513,0,0,1,12.792-5.116,18.984,18.984,0,0,1,13.05,4.994c1.256,1.18,3.165-.7,1.9-1.886a21.753,21.753,0,0,0-14.941-5.788,22.4,22.4,0,0,0-14.691,5.892c-1.307,1.13.586,3.028,1.886,1.9Z" transform="translate(-2100.295 -2576.959)" fill="#8c5096"/>
              </g>
              <g id="Group_2658" data-name="Group 2658" transform="translate(3.265 6.906)">
                <path id="Path_1600" data-name="Path 1600" d="M2108.909,2597.442a13.108,13.108,0,0,1,19.264-.275c1.206,1.239,3.108-.648,1.9-1.886a15.783,15.783,0,0,0-23.054.257c-1.169,1.264.712,3.173,1.886,1.9Z" transform="translate(-2106.654 -2590.405)" fill="#8c5096"/>
              </g>
            </g>
          </g>
        </g>
      </g>
    </g>
    <g id="Group_2665" data-name="Group 2665" transform="translate(1844.569 2076.119)" opacity="0.7">
      <path id="Path_1601" data-name="Path 1601" d="M2323.382,2338.523h-17.319a1.948,1.948,0,0,0-1.948,1.947v9.72a1.948,1.948,0,0,0,1.948,1.947h.565l2.007,3.781a.717.717,0,0,0,1.246.036l2.321-3.817h11.181a1.948,1.948,0,0,0,1.948-1.947v-9.72A1.948,1.948,0,0,0,2323.382,2338.523Z" transform="translate(-2303.064 -2329.887)" fill="#cfdbff"/>
      <path id="Path_1602" data-name="Path 1602" d="M2322.979,2328.85h0a1.138,1.138,0,0,1-1.138-1.139v-3.464a1.139,1.139,0,0,1,1.138-1.14h0a1.14,1.14,0,0,1,1.139,1.14v3.464A1.139,1.139,0,0,1,2322.979,2328.85Z" transform="translate(-2311.688 -2322.388)" fill="#cfdbff"/>
      <path id="Path_1603" data-name="Path 1603" d="M2331.78,2329.478h0a1.139,1.139,0,0,1,0-1.61l2.449-2.45a1.139,1.139,0,0,1,1.61,0h0a1.139,1.139,0,0,1,0,1.611l-2.449,2.449A1.138,1.138,0,0,1,2331.78,2329.478Z" transform="translate(-2316.36 -2323.349)" fill="#cfdbff"/>
      <path id="Path_1604" data-name="Path 1604" d="M2311.86,2329.478h0a1.139,1.139,0,0,0,0-1.61l-2.45-2.45a1.139,1.139,0,0,0-1.61,0h0a1.141,1.141,0,0,0,0,1.611l2.449,2.449A1.138,1.138,0,0,0,2311.86,2329.478Z" transform="translate(-2304.695 -2323.349)" fill="#cfdbff"/>
      <path id="Path_1605" data-name="Path 1605" d="M2321.336,2336.922h-17.32a1.948,1.948,0,0,0-1.948,1.948v9.719a1.947,1.947,0,0,0,1.948,1.947h.565l2.007,3.781a.717.717,0,0,0,1.246.036l2.321-3.817h11.181a1.947,1.947,0,0,0,1.948-1.947v-9.719A1.948,1.948,0,0,0,2321.336,2336.922Z" transform="translate(-2302.069 -2329.108)" fill="#fff"/>
      <g id="Group_2664" data-name="Group 2664" transform="translate(3.544 10.331)">
        <rect id="Rectangle_74" data-name="Rectangle 74" width="14.241" height="8.639" rx="1.019" transform="translate(0.003 0.005)" fill="#666"/>
        <path id="Path_1606" data-name="Path 1606" d="M2323.212,2342.347v.42l-6.009,4.322a1.667,1.667,0,0,1-1.975.019l-6.257-4.511v-.239a.524.524,0,0,1,.523-.524l13.194-.009A.523.523,0,0,1,2323.212,2342.347Z" transform="translate(-2308.971 -2341.824)" fill="#b3b3b3"/>
      </g>
      <path id="Path_1607" data-name="Path 1607" d="M2321.473,2327.448h0a1.138,1.138,0,0,1-1.139-1.139v-3.464a1.138,1.138,0,0,1,1.139-1.138h0a1.138,1.138,0,0,1,1.14,1.138v3.464A1.138,1.138,0,0,1,2321.473,2327.448Z" transform="translate(-2310.954 -2321.706)" fill="#fff"/>
      <path id="Path_1608" data-name="Path 1608" d="M2330.273,2328.074h0a1.139,1.139,0,0,1,0-1.611l2.449-2.449a1.139,1.139,0,0,1,1.611,0h0a1.139,1.139,0,0,1,0,1.611l-2.449,2.449A1.14,1.14,0,0,1,2330.273,2328.074Z" transform="translate(-2315.627 -2322.667)" fill="#fff"/>
      <path id="Path_1609" data-name="Path 1609" d="M2310.353,2328.074h0a1.139,1.139,0,0,0,0-1.611l-2.449-2.449a1.14,1.14,0,0,0-1.611,0h0a1.14,1.14,0,0,0,0,1.611l2.45,2.449A1.14,1.14,0,0,0,2310.353,2328.074Z" transform="translate(-2303.961 -2322.667)" fill="#fff"/>
    </g>
    <g id="Group_2666" data-name="Group 2666" transform="translate(1652.622 1938.7)" opacity="0.6">
      <path id="Path_1610" data-name="Path 1610" d="M1930.864,2054.117h12a2.564,2.564,0,0,1,2.564,2.564v4.827a2.564,2.564,0,0,1-2.564,2.564h-8.278l.291,5.389a.375.375,0,0,1-.715.177l-2.552-5.566h-.747a2.564,2.564,0,0,1-2.564-2.564v-4.827A2.564,2.564,0,0,1,1930.864,2054.117Z" transform="translate(-1928.3 -2054.117)" fill="#7f99eb"/>
      <path id="Path_1611" data-name="Path 1611" d="M1931.785,2058.678h12.476a.877.877,0,0,0,.877-.877h0a.877.877,0,0,0-.877-.877h-12.476a.877.877,0,0,0-.877.877h0A.877.877,0,0,0,1931.785,2058.678Z" transform="translate(-1929.568 -2055.482)" fill="#e3eaff"/>
      <path id="Path_1612" data-name="Path 1612" d="M1931.785,2063.738h12.476a.877.877,0,0,0,.877-.878h0a.877.877,0,0,0-.877-.876h-12.476a.877.877,0,0,0-.877.876h0A.878.878,0,0,0,1931.785,2063.738Z" transform="translate(-1929.568 -2057.944)" fill="#e3eaff"/>
      <rect id="Rectangle_75" data-name="Rectangle 75" width="10.092" height="1.754" rx="0.877" transform="translate(15.569 8.392) rotate(180)" fill="#e3eaff"/>
    </g>
    <g id="Group_2667" data-name="Group 2667" transform="translate(1757.233 1899.357)">
      <path id="Rectangle_76" data-name="Rectangle 76" d="M6.479,0H16.906a6.478,6.478,0,0,1,6.478,6.478v0a6.479,6.479,0,0,1-6.479,6.479H6.478A6.478,6.478,0,0,1,0,6.479v0A6.479,6.479,0,0,1,6.479,0Z" transform="translate(23.384 12.957) rotate(-180)" fill="#8798b9"/>
      <rect id="Rectangle_77" data-name="Rectangle 77" width="30.358" height="16.821" rx="8.411" transform="translate(40.629 35.398) rotate(-180)" fill="#8798b9"/>
      <path id="Path_1613" data-name="Path 1613" d="M2166.34,2002.738v6.736l-4.2-6.736Z" transform="translate(-2146.666 -1989.781)" fill="#8798b9"/>
      <path id="Path_1614" data-name="Path 1614" d="M2160.375,2044.968v6.262a.478.478,0,0,0,.9.217l3.292-6.479Z" transform="translate(-2145.805 -2010.323)" fill="#8798b9"/>
      <path id="Path_1615" data-name="Path 1615" d="M2138.063,1985.12h15.811a1.387,1.387,0,0,0,1.386-1.387h0a1.387,1.387,0,0,0-1.386-1.387h-15.811a1.387,1.387,0,0,0-1.388,1.387h0A1.387,1.387,0,0,0,2138.063,1985.12Z" transform="translate(-2134.276 -1979.861)" fill="#d5c0f4"/>
      <rect id="Rectangle_78" data-name="Rectangle 78" width="18.585" height="2.774" rx="1.387" transform="translate(20.984 9.738) rotate(-180)" fill="#d5c0f4"/>
      <path id="Path_1616" data-name="Path 1616" d="M2158.251,2020.994h22.156a1.543,1.543,0,0,0,1.542-1.543h0a1.543,1.543,0,0,0-1.542-1.542h-22.156a1.543,1.543,0,0,0-1.543,1.542h0A1.543,1.543,0,0,0,2158.251,2020.994Z" transform="translate(-2144.021 -1997.161)" fill="#d5c0f4"/>
      <path id="Path_1617" data-name="Path 1617" d="M2158.251,2030.525h22.156a1.543,1.543,0,0,0,1.542-1.544h0a1.542,1.542,0,0,0-1.542-1.542h-22.156a1.543,1.543,0,0,0-1.543,1.542h0A1.543,1.543,0,0,0,2158.251,2030.525Z" transform="translate(-2144.021 -2001.797)" fill="#d5c0f4"/>
      <rect id="Rectangle_79" data-name="Rectangle 79" width="16.851" height="3.086" rx="1.543" transform="translate(29.538 33.622) rotate(180)" fill="#d5c0f4"/>
    </g>
    <g id="Group_2668" data-name="Group 2668" transform="translate(1738.279 2147.94)" opacity="0.8">
      <path id="Path_1618" data-name="Path 1618" d="M2108.193,2495.066a17.84,17.84,0,0,1-4.212,1.414.982.982,0,1,1-.372-1.928,15.819,15.819,0,0,0,3.744-1.261.982.982,0,1,1,.84,1.774Zm2.4-2.456a.98.98,0,0,1,.241-1.367,35.343,35.343,0,0,0,3.2-2.549.982.982,0,0,1,1.306,1.467,37.283,37.283,0,0,1-3.381,2.691.927.927,0,0,1-.144.083A.98.98,0,0,1,2110.593,2492.61Zm-11.132,3.977a12.607,12.607,0,0,1-3.833-1.261.982.982,0,1,1,.9-1.746,10.64,10.64,0,0,0,3.236,1.066.982.982,0,1,1-.3,1.94Zm60.926-29.379a26.5,26.5,0,0,0-3.689-1.682.982.982,0,1,1,.683-1.842,28.49,28.49,0,0,1,3.964,1.809.982.982,0,1,1-.958,1.715Zm-43.359,20a.983.983,0,0,1-.041-1.389c.911-.964,1.83-2.012,2.735-3.11a.982.982,0,1,1,1.517,1.247c-.932,1.135-1.882,2.214-2.824,3.212a.952.952,0,0,1-.292.214A.982.982,0,0,1,2117.027,2487.2Zm5.45-6.412a.982.982,0,0,1-.214-1.372c.8-1.1,1.6-2.252,2.363-3.421a.982.982,0,1,1,1.644,1.074c-.783,1.2-1.6,2.376-2.421,3.5a.981.981,0,0,1-1.372.214Zm30.307-16.44a32.486,32.486,0,0,0-4.025-.681.982.982,0,0,1,.2-1.954,34.91,34.91,0,0,1,4.268.723.982.982,0,1,1-.447,1.913Zm-25.618,9.451a.982.982,0,0,1-.353-1.343c.259-.443.515-.894.763-1.337a18.775,18.775,0,0,1,1.538-2.333.982.982,0,1,1,1.553,1.2,16.841,16.841,0,0,0-1.376,2.089c-.253.454-.516.915-.782,1.37a.982.982,0,0,1-1.343.353Zm17.526-10.28a24.139,24.139,0,0,0-4.011.473.982.982,0,1,1-.4-1.922,26.046,26.046,0,0,1,4.34-.513.982.982,0,0,1,.456,1.869A.972.972,0,0,1,2144.693,2463.523Zm-12.611,3.5a.981.981,0,0,1,.178-1.376,18.267,18.267,0,0,1,3.823-2.251.982.982,0,1,1,.787,1.8,16.313,16.313,0,0,0-3.411,2.007.966.966,0,0,1-.179.11A.981.981,0,0,1,2132.082,2467.023Z" transform="translate(-2095.096 -2461.56)" fill="#fff"/>
    </g>
    <g id="Group_2669" data-name="Group 2669" transform="translate(1512.448 2017.591)">
      <path id="Path_1619" data-name="Path 1619" d="M1690.972,2213.507a17.8,17.8,0,0,1,3.159-3.125.982.982,0,0,1,1.183,1.568,15.84,15.84,0,0,0-2.806,2.781.982.982,0,0,1-1.536-1.225Zm-1.073,3.261a.982.982,0,0,1,.385,1.334,35.255,35.255,0,0,0-1.752,3.7.982.982,0,1,1-1.818-.742,37.163,37.163,0,0,1,1.851-3.905,1.042,1.042,0,0,1,.092-.138A.982.982,0,0,1,1689.9,2216.768Zm8.243-8.473a12.581,12.581,0,0,1,4-.556.982.982,0,0,1-.039,1.963,10.633,10.633,0,0,0-3.374.468.982.982,0,1,1-.584-1.875Zm-41.761,53.208a26.69,26.69,0,0,0,4.054-.115.982.982,0,0,1,.2,1.954,28.5,28.5,0,0,1-4.355.123.982.982,0,0,1,.1-1.961Zm30.123-37.047a.982.982,0,0,1,.647,1.228c-.392,1.268-.758,2.612-1.085,4a.982.982,0,0,1-1.911-.452c.337-1.428.714-2.817,1.12-4.127a.981.981,0,0,1,1.229-.647Zm-2.07,8.156a.982.982,0,0,1,.8,1.138c-.236,1.342-.443,2.726-.614,4.112a.982.982,0,1,1-1.949-.24c.175-1.42.387-2.838.629-4.213a.981.981,0,0,1,1.137-.8Zm-19.97,28.107a32.81,32.81,0,0,0,3.915-1.161.982.982,0,1,1,.676,1.843,34.667,34.667,0,0,1-4.15,1.231.982.982,0,0,1-.441-1.914Zm18.838-19.767a.981.981,0,0,1,.908,1.05c-.037.513-.069,1.029-.1,1.536a18.913,18.913,0,0,1-.353,2.772.982.982,0,0,1-1.924-.4,16.877,16.877,0,0,0,.316-2.482c.028-.519.061-1.048.1-1.574a.981.981,0,0,1,1.05-.908Zm-11.208,16.947a24.042,24.042,0,0,0,3.394-2.19.982.982,0,0,1,1.205,1.55,25.981,25.981,0,0,1-3.671,2.371.982.982,0,1,1-.928-1.731Zm9.781-8.7a.982.982,0,0,1,.446,1.315,18.207,18.207,0,0,1-2.441,3.7.982.982,0,1,1-1.5-1.269,16.276,16.276,0,0,0,2.178-3.3.959.959,0,0,1,.113-.178A.982.982,0,0,1,1681.875,2249.2Z" transform="translate(-1655.347 -2207.737)" fill="#d5defb"/>
    </g>
    <g id="Group_2670" data-name="Group 2670" transform="translate(1801.798 2145.75)" opacity="0.8">
      <path id="Path_1620" data-name="Path 1620" d="M2243.1,2469.274l-.566,4.652,25.073,4.347Z" transform="translate(-2230.335 -2463.121)" fill="#4661b3"/>
      <path id="Path_1621" data-name="Path 1621" d="M2242.563,2487.513l3.058,3.647,20.875-4.782Z" transform="translate(-2230.351 -2471.442)" fill="#4661b3"/>
      <path id="Path_1622" data-name="Path 1622" d="M2256.052,2481.759l-37.27,3.686,9.373-9Z" transform="translate(-2218.782 -2466.608)" fill="#fff"/>
      <path id="Path_1623" data-name="Path 1623" d="M2243.635,2463.445l24.508,9-18.842-15.15Z" transform="translate(-2230.871 -2457.293)" fill="#fff"/>
    </g>
    <g id="Group_2671" data-name="Group 2671" transform="translate(1492.774 2050.602)">
      <path id="Rectangle_80" data-name="Rectangle 80" d="M1.6,0h19.13a1.6,1.6,0,0,1,1.6,1.6V11.945a1.6,1.6,0,0,1-1.6,1.6H1.6a1.6,1.6,0,0,1-1.6-1.6V1.6A1.6,1.6,0,0,1,1.6,0Z" transform="matrix(0.799, -0.601, 0.601, 0.799, 0, 13.418)" fill="#cdd8fa" stroke="#95a6db" stroke-miterlimit="10" stroke-width="2"/>
      <path id="Path_1624" data-name="Path 1624" d="M1635.685,2272.984l.4.526-3.464,11.074a2.613,2.613,0,0,1-2.458,1.881l-12.09.237-.226-.3a.82.82,0,0,1,.163-1.148l16.531-12.432A.821.821,0,0,1,1635.685,2272.984Z" transform="translate(-1617.349 -2272.328)" fill="#fff" stroke="#95a6db" stroke-miterlimit="10" stroke-width="2"/>
    </g>
  </g>
</svg>
